<mxfile host="app.diagrams.net" agent="Mozilla/5.0 (Windows NT 10.0; Win64; x64) AppleWebKit/537.36 (KHTML, like Gecko) Chrome/139.0.0.0 Safari/537.36" version="28.1.0">
  <diagram name="Page-1" id="alaE_N-_YL2Ruf7w1jvd">
    <mxGraphModel dx="2679" dy="1641" grid="0" gridSize="10" guides="0" tooltips="1" connect="1" arrows="1" fold="1" page="1" pageScale="1" pageWidth="850" pageHeight="1100" math="0" shadow="0">
      <root>
        <mxCell id="0" />
        <mxCell id="1" parent="0" />
        <mxCell id="D2oOb19byxSWU7CXDX52-63" value="" style="rounded=0;whiteSpace=wrap;html=1;" vertex="1" parent="1">
          <mxGeometry x="-853" y="-153" width="178" height="40" as="geometry" />
        </mxCell>
        <mxCell id="D2oOb19byxSWU7CXDX52-62" value="" style="rounded=0;whiteSpace=wrap;html=1;" vertex="1" parent="1">
          <mxGeometry x="-851" y="-155" width="178" height="40" as="geometry" />
        </mxCell>
        <mxCell id="D2oOb19byxSWU7CXDX52-61" value="" style="rounded=0;whiteSpace=wrap;html=1;" vertex="1" parent="1">
          <mxGeometry x="-849" y="-157" width="178" height="40" as="geometry" />
        </mxCell>
        <mxCell id="D2oOb19byxSWU7CXDX52-47" value="" style="rounded=0;whiteSpace=wrap;html=1;" vertex="1" parent="1">
          <mxGeometry x="-847" y="-159" width="178" height="40" as="geometry" />
        </mxCell>
        <mxCell id="GgaFxnMZl0LJMFkfZewS-9" value="" style="edgeStyle=orthogonalEdgeStyle;rounded=0;orthogonalLoop=1;jettySize=auto;html=1;entryX=0.5;entryY=0;entryDx=0;entryDy=0;exitX=0.5;exitY=1;exitDx=0;exitDy=0;" parent="1" edge="1">
          <mxGeometry relative="1" as="geometry">
            <mxPoint x="-430" y="206" as="sourcePoint" />
            <mxPoint x="-430" y="229" as="targetPoint" />
          </mxGeometry>
        </mxCell>
        <mxCell id="GgaFxnMZl0LJMFkfZewS-10" value="" style="edgeStyle=orthogonalEdgeStyle;rounded=0;orthogonalLoop=1;jettySize=auto;html=1;entryX=0.5;entryY=0;entryDx=0;entryDy=0;" parent="1" edge="1">
          <mxGeometry relative="1" as="geometry">
            <mxPoint x="-200" y="210" as="sourcePoint" />
            <mxPoint x="-200" y="230" as="targetPoint" />
          </mxGeometry>
        </mxCell>
        <mxCell id="D2oOb19byxSWU7CXDX52-16" value="" style="edgeStyle=orthogonalEdgeStyle;rounded=0;orthogonalLoop=1;jettySize=auto;html=1;" edge="1" parent="1" source="GgaFxnMZl0LJMFkfZewS-12" target="NYThNlFeUHZ_-tV4PY2E-36">
          <mxGeometry relative="1" as="geometry" />
        </mxCell>
        <mxCell id="GgaFxnMZl0LJMFkfZewS-12" value="&lt;b&gt;Transformer Encoder&lt;/b&gt;" style="rounded=1;whiteSpace=wrap;html=1;align=center;verticalAlign=top;" parent="1" vertex="1">
          <mxGeometry x="-500" y="230" width="140" height="230" as="geometry" />
        </mxCell>
        <mxCell id="GgaFxnMZl0LJMFkfZewS-19" value="&lt;b&gt;Decoder&lt;/b&gt;" style="rounded=1;whiteSpace=wrap;html=1;verticalAlign=top;" parent="1" vertex="1">
          <mxGeometry x="-520" y="600" width="410" height="140" as="geometry" />
        </mxCell>
        <mxCell id="GgaFxnMZl0LJMFkfZewS-30" value="" style="edgeStyle=orthogonalEdgeStyle;rounded=0;orthogonalLoop=1;jettySize=auto;html=1;" parent="1" source="GgaFxnMZl0LJMFkfZewS-26" edge="1">
          <mxGeometry relative="1" as="geometry">
            <mxPoint x="-430" y="352" as="targetPoint" />
          </mxGeometry>
        </mxCell>
        <mxCell id="GgaFxnMZl0LJMFkfZewS-26" value="MultiheadAttention" style="rounded=0;whiteSpace=wrap;html=1;fillColor=#0050ef;strokeColor=#001DBC;fontColor=#ffffff;" parent="1" vertex="1">
          <mxGeometry x="-490" y="311" width="120" height="20" as="geometry" />
        </mxCell>
        <mxCell id="GgaFxnMZl0LJMFkfZewS-29" value="LinearLayer x2" style="whiteSpace=wrap;html=1;rounded=0;fillColor=#f8cecc;strokeColor=#b85450;" parent="1" vertex="1">
          <mxGeometry x="-490" y="392" width="120" height="20" as="geometry" />
        </mxCell>
        <mxCell id="GgaFxnMZl0LJMFkfZewS-38" value="LayerNorm" style="whiteSpace=wrap;html=1;rounded=0;fillColor=#fff2cc;strokeColor=#d6b656;" parent="1" vertex="1">
          <mxGeometry x="-490" y="432" width="120" height="20" as="geometry" />
        </mxCell>
        <mxCell id="GgaFxnMZl0LJMFkfZewS-63" value="" style="edgeStyle=orthogonalEdgeStyle;rounded=0;orthogonalLoop=1;jettySize=auto;html=1;" parent="1" edge="1">
          <mxGeometry relative="1" as="geometry">
            <mxPoint x="-430" y="412" as="sourcePoint" />
            <mxPoint x="-430" y="432" as="targetPoint" />
          </mxGeometry>
        </mxCell>
        <mxCell id="LqPaumKF4AQ05YwWMNbk-46" value="" style="edgeStyle=orthogonalEdgeStyle;rounded=0;orthogonalLoop=1;jettySize=auto;html=1;" parent="1" source="GgaFxnMZl0LJMFkfZewS-92" edge="1">
          <mxGeometry relative="1" as="geometry">
            <mxPoint x="-315" y="600" as="targetPoint" />
          </mxGeometry>
        </mxCell>
        <mxCell id="GgaFxnMZl0LJMFkfZewS-92" value="&lt;b&gt;concat&lt;/b&gt;" style="shape=hexagon;perimeter=hexagonPerimeter2;whiteSpace=wrap;html=1;fixedSize=1;fillColor=#e6d0de;gradientColor=#d5739d;strokeColor=#996185;" parent="1" vertex="1">
          <mxGeometry x="-360" y="520" width="90" height="47" as="geometry" />
        </mxCell>
        <mxCell id="GgaFxnMZl0LJMFkfZewS-102" style="edgeStyle=orthogonalEdgeStyle;rounded=0;orthogonalLoop=1;jettySize=auto;html=1;exitX=0.5;exitY=1;exitDx=0;exitDy=0;entryX=0.5;entryY=0;entryDx=0;entryDy=0;" parent="1" target="GgaFxnMZl0LJMFkfZewS-98" edge="1">
          <mxGeometry relative="1" as="geometry">
            <Array as="points">
              <mxPoint x="-331" y="660" />
              <mxPoint x="-465" y="660" />
            </Array>
            <mxPoint x="-331" y="644" as="sourcePoint" />
          </mxGeometry>
        </mxCell>
        <mxCell id="GgaFxnMZl0LJMFkfZewS-105" style="edgeStyle=orthogonalEdgeStyle;rounded=0;orthogonalLoop=1;jettySize=auto;html=1;entryX=0.5;entryY=0;entryDx=0;entryDy=0;exitX=0.5;exitY=1;exitDx=0;exitDy=0;" parent="1" target="GgaFxnMZl0LJMFkfZewS-101" edge="1">
          <mxGeometry relative="1" as="geometry">
            <Array as="points">
              <mxPoint x="-296" y="660" />
              <mxPoint x="-165" y="660" />
            </Array>
            <mxPoint x="-296" y="644" as="sourcePoint" />
          </mxGeometry>
        </mxCell>
        <mxCell id="GgaFxnMZl0LJMFkfZewS-93" value="LinearLayer" style="whiteSpace=wrap;html=1;rounded=0;fillColor=#f8cecc;strokeColor=#b85450;" parent="1" vertex="1">
          <mxGeometry x="-363" y="624" width="100" height="20" as="geometry" />
        </mxCell>
        <mxCell id="GgaFxnMZl0LJMFkfZewS-98" value="&lt;div style=&quot;&quot;&gt;&lt;span style=&quot;background-color: transparent; color: light-dark(rgb(0, 0, 0), rgb(255, 255, 255));&quot;&gt;Transform&amp;nbsp;&lt;/span&gt;&lt;span style=&quot;background-color: transparent;&quot;&gt;α&lt;/span&gt;&lt;/div&gt;&lt;span style=&quot;color: rgba(0, 0, 0, 0); font-family: monospace; font-size: 0px; text-wrap-mode: nowrap;&quot;&gt;&lt;span style=&quot;color: rgb(0, 0, 0); font-family: Helvetica; font-size: 12px; text-wrap-mode: wrap;&quot;&gt;LinearLayer x2&lt;/span&gt;%3CmxGraphModel%3E%3Croot%3E%3CmxCell%20id%3D%220%22%2F%3E%3CmxCell%20id%3D%221%22%20parent%3D%220%22%2F%3E%3CmxCell%20id%3D%222%22%20value%3D%22%22%20style%3D%22endArrow%3Dclassic%3Brounded%3D0%3BstrokeWidth%3D1%3BstartSize%3D1%3BendSize%3D1%3BsourcePerimeterSpacing%3D0%3BtargetPerimeterSpacing%3D0%3BexitX%3D0.417%3BexitY%3D0.667%3BexitDx%3D0%3BexitDy%3D0%3BexitPerimeter%3D0%3BverticalAlign%3Dbottom%3Bhtml%3D1%3B%22%20edge%3D%221%22%20parent%3D%221%22%3E%3CmxGeometry%20width%3D%2250%22%20height%3D%2250%22%20relative%3D%221%22%20as%3D%22geometry%22%3E%3CmxPoint%20x%3D%22326%22%20y%3D%22592.02%22%20as%3D%22sourcePoint%22%2F%3E%3CmxPoint%20x%3D%22335.96000000000004%22%20y%3D%22592%22%20as%3D%22targetPoint%22%2F%3E%3CArray%20as%3D%22points%22%2F%3E%3C%2FmxGeometry%3E%3C%2FmxCell%3E%3C%2Froot%3E%3C%2FmxGraphModel%3E&lt;/span&gt;" style="rounded=0;whiteSpace=wrap;html=1;align=center;fillColor=#f8cecc;strokeColor=#b85450;" parent="1" vertex="1">
          <mxGeometry x="-510" y="680" width="90" height="40" as="geometry" />
        </mxCell>
        <mxCell id="GgaFxnMZl0LJMFkfZewS-99" value="&lt;div style=&quot;&quot;&gt;&lt;span style=&quot;background-color: transparent; color: light-dark(rgb(0, 0, 0), rgb(255, 255, 255));&quot;&gt;Transform&amp;nbsp;&lt;/span&gt;&lt;span style=&quot;background-color: transparent;&quot;&gt;β&lt;/span&gt;&lt;/div&gt;LinearLayer x2" style="rounded=0;whiteSpace=wrap;html=1;align=center;fillColor=#f8cecc;strokeColor=#b85450;" parent="1" vertex="1">
          <mxGeometry x="-407" y="680" width="87" height="40" as="geometry" />
        </mxCell>
        <mxCell id="GgaFxnMZl0LJMFkfZewS-100" value="Transform&amp;nbsp;&lt;span style=&quot;&quot;&gt;γ&lt;br&gt;&lt;/span&gt;&lt;span style=&quot;text-wrap-mode: nowrap; color: rgba(0, 0, 0, 0); font-family: monospace; font-size: 0px;&quot;&gt;&lt;span style=&quot;color: rgb(0, 0, 0); font-family: Helvetica; font-size: 12px; text-wrap-mode: wrap;&quot;&gt;LinearLayer x2&lt;/span&gt;%3CmxGraphModel%3E%3Croot%3E%3CmxCell%20id%3D%220%22%2F%3E%3CmxCell%20id%3D%221%22%20parent%3D%220%22%2F%3E%3CmxCell%20id%3D%222%22%20value%3D%22%22%20style%3D%22endArrow%3Dclassic%3Brounded%3D0%3BstrokeWidth%3D1%3BstartSize%3D1%3BendSize%3D1%3BsourcePerimeterSpacing%3D0%3BtargetPerimeterSpacing%3D0%3BexitX%3D0.417%3BexitY%3D0.667%3BexitDx%3D0%3BexitDy%3D0%3BexitPerimeter%3D0%3BverticalAlign%3Dbottom%3Bhtml%3D1%3B%22%20edge%3D%221%22%20parent%3D%221%22%3E%3CmxGeometry%20width%3D%2250%22%20height%3D%2250%22%20relative%3D%221%22%20as%3D%22geometry%22%3E%3CmxPoint%20x%3D%22326%22%20y%3D%22592.02%22%20as%3D%22sourcePoint%22%2F%3E%3CmxPoint%20x%3D%22335.96000000000004%22%20y%3D%22592%22%20as%3D%22targetPoint%22%2F%3E%3CArray%20as%3D%22points%22%2F%3E%3C%2FmxGeometry%3E%3C%2FmxCell%3E%3C%2Froot%3E%3C%2FmxGraphModel%3E&lt;/span&gt;" style="rounded=0;whiteSpace=wrap;html=1;align=center;fillColor=#f8cecc;strokeColor=#b85450;" parent="1" vertex="1">
          <mxGeometry x="-310" y="680" width="86" height="40" as="geometry" />
        </mxCell>
        <mxCell id="GgaFxnMZl0LJMFkfZewS-101" value="&lt;div style=&quot;&quot;&gt;&lt;span style=&quot;background-color: transparent; color: light-dark(rgb(0, 0, 0), rgb(255, 255, 255));&quot;&gt;Transform&amp;nbsp;&lt;/span&gt;&lt;span style=&quot;background-color: transparent;&quot;&gt;ν&lt;/span&gt;&lt;/div&gt;&lt;span style=&quot;text-wrap-mode: nowrap; color: rgba(0, 0, 0, 0); font-family: monospace; font-size: 0px;&quot;&gt;&lt;span style=&quot;color: rgb(0, 0, 0); font-family: Helvetica; font-size: 12px; text-wrap-mode: wrap;&quot;&gt;LinearLayer x2&lt;/span&gt;%&amp;nbsp; vd3CmxGraphModel%3E%3Croot%3E%3CmxCell%20id%3D%220%22%2F%3E%3CmxCell%20id%3D%221%22%20parent%3D%220%22%2F%3E%3CmxCell%20id%3D%222%22%20value%3D%22%22%20style%3D%22endArrow%3Dclassic%3Brounded%3D0%3BstrokeWidth%3D1%3BstartSize%3D1%3BendSize%3D1%3BsourcePerimeterSpacing%3D0%3BtargetPerimeterSpacing%3D0%3BexitX%3D0.417%3BexitY%3D0.667%3BexitDx%3D0%3BexitDy%3D0%3BexitPerimeter%3D0%3BverticalAlign%3Dbottom%3Bhtml%3D1%3B%22%20edge%3D%221%22%20parent%3D%221%22%3E%3CmxGeometry%20width%3D%2250%22%20height%3D%2250%22%20relative%3D%221%22%20as%3D%22geometry%22%3E%3CmxPoint%20x%3D%22326%22%20y%3D%22592.02%22%20as%3D%22sourcePoint%22%2F%3E%3CmxPoint%20x%3D%22335.96000000000004%22%20y%3D%22592%22%20as%3D%22targetPoint%22%2F%3E%3CArray%20as%3D%22points%22%2F%3E%3C%2FmxGeometry%3E%3C%2FmxCell%3E%3C%2Froot%3E%3C%2FmxGraphModel%3E&lt;/span&gt;" style="rounded=0;whiteSpace=wrap;html=1;align=center;fillColor=#f8cecc;strokeColor=#b85450;" parent="1" vertex="1">
          <mxGeometry x="-210" y="680" width="90" height="40" as="geometry" />
        </mxCell>
        <mxCell id="GgaFxnMZl0LJMFkfZewS-110" value="" style="endArrow=classic;html=1;rounded=0;entryX=0.589;entryY=0.024;entryDx=0;entryDy=0;entryPerimeter=0;" parent="1" edge="1">
          <mxGeometry width="50" height="50" relative="1" as="geometry">
            <mxPoint x="-262" y="660" as="sourcePoint" />
            <mxPoint x="-262" y="681" as="targetPoint" />
          </mxGeometry>
        </mxCell>
        <mxCell id="GgaFxnMZl0LJMFkfZewS-111" value="" style="endArrow=classic;html=1;rounded=0;entryX=0.589;entryY=0.024;entryDx=0;entryDy=0;entryPerimeter=0;" parent="1" edge="1">
          <mxGeometry width="50" height="50" relative="1" as="geometry">
            <mxPoint x="-366" y="660" as="sourcePoint" />
            <mxPoint x="-366" y="681" as="targetPoint" />
          </mxGeometry>
        </mxCell>
        <mxCell id="LqPaumKF4AQ05YwWMNbk-5" value="&lt;span style=&quot;text-align: start;&quot;&gt;&lt;b&gt;α&lt;/b&gt;&lt;/span&gt;" style="rhombus;whiteSpace=wrap;html=1;fillColor=#647687;fontColor=#ffffff;strokeColor=#314354;" parent="1" vertex="1">
          <mxGeometry x="-491" y="780" width="52" height="50" as="geometry" />
        </mxCell>
        <mxCell id="LqPaumKF4AQ05YwWMNbk-6" value="&lt;span style=&quot;text-align: start;&quot;&gt;&lt;b&gt;β&lt;/b&gt;&lt;/span&gt;" style="rhombus;whiteSpace=wrap;html=1;fillColor=#647687;fontColor=#ffffff;strokeColor=#314354;" parent="1" vertex="1">
          <mxGeometry x="-390" y="780" width="52" height="50" as="geometry" />
        </mxCell>
        <mxCell id="LqPaumKF4AQ05YwWMNbk-7" value="&lt;span style=&quot;text-align: start;&quot;&gt;&lt;b&gt;γ&lt;/b&gt;&lt;/span&gt;" style="rhombus;whiteSpace=wrap;html=1;direction=south;fillColor=#647687;fontColor=#ffffff;strokeColor=#314354;" parent="1" vertex="1">
          <mxGeometry x="-292" y="779" width="50" height="52" as="geometry" />
        </mxCell>
        <mxCell id="LqPaumKF4AQ05YwWMNbk-8" value="&lt;span style=&quot;text-align: start;&quot;&gt;&lt;b&gt;ν&lt;/b&gt;&lt;/span&gt;" style="rhombus;whiteSpace=wrap;html=1;fillColor=#647687;fontColor=#ffffff;strokeColor=#314354;" parent="1" vertex="1">
          <mxGeometry x="-191" y="780" width="52" height="50" as="geometry" />
        </mxCell>
        <mxCell id="LqPaumKF4AQ05YwWMNbk-9" value="" style="endArrow=classic;html=1;rounded=0;exitX=0.5;exitY=1;exitDx=0;exitDy=0;entryX=0.5;entryY=0;entryDx=0;entryDy=0;" parent="1" source="GgaFxnMZl0LJMFkfZewS-98" target="LqPaumKF4AQ05YwWMNbk-5" edge="1">
          <mxGeometry width="50" height="50" relative="1" as="geometry">
            <mxPoint x="-358" y="770" as="sourcePoint" />
            <mxPoint x="-308" y="720" as="targetPoint" />
          </mxGeometry>
        </mxCell>
        <mxCell id="LqPaumKF4AQ05YwWMNbk-10" value="" style="endArrow=classic;html=1;rounded=0;exitX=0.5;exitY=1;exitDx=0;exitDy=0;entryX=0.5;entryY=0;entryDx=0;entryDy=0;" parent="1" edge="1">
          <mxGeometry width="50" height="50" relative="1" as="geometry">
            <mxPoint x="-363.5" y="720" as="sourcePoint" />
            <mxPoint x="-364" y="780" as="targetPoint" />
          </mxGeometry>
        </mxCell>
        <mxCell id="LqPaumKF4AQ05YwWMNbk-11" value="" style="endArrow=classic;html=1;rounded=0;exitX=0.5;exitY=1;exitDx=0;exitDy=0;entryX=0;entryY=0.5;entryDx=0;entryDy=0;" parent="1" source="GgaFxnMZl0LJMFkfZewS-100" target="LqPaumKF4AQ05YwWMNbk-7" edge="1">
          <mxGeometry width="50" height="50" relative="1" as="geometry">
            <mxPoint x="-272" y="750" as="sourcePoint" />
            <mxPoint x="-264" y="780" as="targetPoint" />
          </mxGeometry>
        </mxCell>
        <mxCell id="LqPaumKF4AQ05YwWMNbk-12" value="" style="endArrow=classic;html=1;rounded=0;entryX=0.5;entryY=0;entryDx=0;entryDy=0;exitX=0.5;exitY=1;exitDx=0;exitDy=0;" parent="1" source="GgaFxnMZl0LJMFkfZewS-101" target="LqPaumKF4AQ05YwWMNbk-8" edge="1">
          <mxGeometry width="50" height="50" relative="1" as="geometry">
            <mxPoint x="-158.00000000000023" y="720" as="sourcePoint" />
            <mxPoint x="-166" y="800" as="targetPoint" />
          </mxGeometry>
        </mxCell>
        <mxCell id="LqPaumKF4AQ05YwWMNbk-16" value="" style="swimlane;childLayout=stackLayout;resizeParent=1;resizeParentMax=0;startSize=0;html=1;" parent="1" vertex="1">
          <mxGeometry x="-844" y="-50" width="160" height="220" as="geometry">
            <mxRectangle x="-20" y="20" width="60" height="30" as="alternateBounds" />
          </mxGeometry>
        </mxCell>
        <mxCell id="LqPaumKF4AQ05YwWMNbk-17" value="4 feature" style="swimlane;startSize=20;html=1;" parent="LqPaumKF4AQ05YwWMNbk-16" vertex="1">
          <mxGeometry width="80" height="220" as="geometry" />
        </mxCell>
        <mxCell id="LqPaumKF4AQ05YwWMNbk-18" value="1 output" style="swimlane;startSize=20;html=1;" parent="LqPaumKF4AQ05YwWMNbk-16" vertex="1">
          <mxGeometry x="80" width="80" height="220" as="geometry" />
        </mxCell>
        <mxCell id="LqPaumKF4AQ05YwWMNbk-20" value="data i" style="text;html=1;align=center;verticalAlign=middle;resizable=0;points=[];autosize=1;strokeColor=none;fillColor=none;" parent="1" vertex="1">
          <mxGeometry x="-829" y="-34" width="50" height="30" as="geometry" />
        </mxCell>
        <mxCell id="LqPaumKF4AQ05YwWMNbk-21" value="data i - 1" style="text;html=1;align=center;verticalAlign=middle;resizable=0;points=[];autosize=1;strokeColor=none;fillColor=none;" parent="1" vertex="1">
          <mxGeometry x="-838" y="-16" width="70" height="30" as="geometry" />
        </mxCell>
        <mxCell id="LqPaumKF4AQ05YwWMNbk-22" value="data i - 2" style="text;html=1;align=center;verticalAlign=middle;resizable=0;points=[];autosize=1;strokeColor=none;fillColor=none;" parent="1" vertex="1">
          <mxGeometry x="-838" y="1" width="70" height="30" as="geometry" />
        </mxCell>
        <mxCell id="LqPaumKF4AQ05YwWMNbk-23" value="data i - 3" style="text;html=1;align=center;verticalAlign=middle;resizable=0;points=[];autosize=1;strokeColor=none;fillColor=none;" parent="1" vertex="1">
          <mxGeometry x="-837" y="18" width="70" height="30" as="geometry" />
        </mxCell>
        <mxCell id="LqPaumKF4AQ05YwWMNbk-24" value="data i - 4" style="text;html=1;align=center;verticalAlign=middle;resizable=0;points=[];autosize=1;strokeColor=none;fillColor=none;" parent="1" vertex="1">
          <mxGeometry x="-837" y="35" width="70" height="30" as="geometry" />
        </mxCell>
        <mxCell id="LqPaumKF4AQ05YwWMNbk-25" value="data i - 5" style="text;html=1;align=center;verticalAlign=middle;resizable=0;points=[];autosize=1;strokeColor=none;fillColor=none;" parent="1" vertex="1">
          <mxGeometry x="-837" y="53" width="70" height="30" as="geometry" />
        </mxCell>
        <mxCell id="LqPaumKF4AQ05YwWMNbk-26" value="data i - 6" style="text;html=1;align=center;verticalAlign=middle;resizable=0;points=[];autosize=1;strokeColor=none;fillColor=none;" parent="1" vertex="1">
          <mxGeometry x="-836" y="70" width="70" height="30" as="geometry" />
        </mxCell>
        <mxCell id="LqPaumKF4AQ05YwWMNbk-27" value="data i - 7" style="text;html=1;align=center;verticalAlign=middle;resizable=0;points=[];autosize=1;strokeColor=none;fillColor=none;" parent="1" vertex="1">
          <mxGeometry x="-836" y="86" width="70" height="30" as="geometry" />
        </mxCell>
        <mxCell id="LqPaumKF4AQ05YwWMNbk-28" value="data i - 8" style="text;html=1;align=center;verticalAlign=middle;resizable=0;points=[];autosize=1;strokeColor=none;fillColor=none;" parent="1" vertex="1">
          <mxGeometry x="-836" y="103" width="70" height="30" as="geometry" />
        </mxCell>
        <mxCell id="LqPaumKF4AQ05YwWMNbk-29" value="data i - 9" style="text;html=1;align=center;verticalAlign=middle;resizable=0;points=[];autosize=1;strokeColor=none;fillColor=none;" parent="1" vertex="1">
          <mxGeometry x="-836" y="121" width="70" height="30" as="geometry" />
        </mxCell>
        <mxCell id="LqPaumKF4AQ05YwWMNbk-30" value="data i - 10" style="text;html=1;align=center;verticalAlign=middle;resizable=0;points=[];autosize=1;strokeColor=none;fillColor=none;" parent="1" vertex="1">
          <mxGeometry x="-841" y="138" width="80" height="30" as="geometry" />
        </mxCell>
        <mxCell id="LqPaumKF4AQ05YwWMNbk-31" value="data i + 10" style="text;html=1;align=center;verticalAlign=middle;resizable=0;points=[];autosize=1;strokeColor=none;fillColor=none;" parent="1" vertex="1">
          <mxGeometry x="-767" y="-34" width="80" height="30" as="geometry" />
        </mxCell>
        <mxCell id="LqPaumKF4AQ05YwWMNbk-32" value="data i + 9" style="text;html=1;align=center;verticalAlign=middle;resizable=0;points=[];autosize=1;strokeColor=none;fillColor=none;" parent="1" vertex="1">
          <mxGeometry x="-761" y="-16" width="70" height="30" as="geometry" />
        </mxCell>
        <mxCell id="LqPaumKF4AQ05YwWMNbk-33" value="data i + 8" style="text;html=1;align=center;verticalAlign=middle;resizable=0;points=[];autosize=1;strokeColor=none;fillColor=none;" parent="1" vertex="1">
          <mxGeometry x="-761" y="1" width="70" height="30" as="geometry" />
        </mxCell>
        <mxCell id="LqPaumKF4AQ05YwWMNbk-34" value="data i + 7" style="text;html=1;align=center;verticalAlign=middle;resizable=0;points=[];autosize=1;strokeColor=none;fillColor=none;" parent="1" vertex="1">
          <mxGeometry x="-760" y="18" width="70" height="30" as="geometry" />
        </mxCell>
        <mxCell id="LqPaumKF4AQ05YwWMNbk-35" value="data i + 6" style="text;html=1;align=center;verticalAlign=middle;resizable=0;points=[];autosize=1;strokeColor=none;fillColor=none;" parent="1" vertex="1">
          <mxGeometry x="-760" y="35" width="70" height="30" as="geometry" />
        </mxCell>
        <mxCell id="LqPaumKF4AQ05YwWMNbk-36" value="data i + 5" style="text;html=1;align=center;verticalAlign=middle;resizable=0;points=[];autosize=1;strokeColor=none;fillColor=none;" parent="1" vertex="1">
          <mxGeometry x="-760" y="53" width="70" height="30" as="geometry" />
        </mxCell>
        <mxCell id="LqPaumKF4AQ05YwWMNbk-37" value="data i + 4" style="text;html=1;align=center;verticalAlign=middle;resizable=0;points=[];autosize=1;strokeColor=none;fillColor=none;" parent="1" vertex="1">
          <mxGeometry x="-759" y="70" width="70" height="30" as="geometry" />
        </mxCell>
        <mxCell id="LqPaumKF4AQ05YwWMNbk-38" value="data i + 3" style="text;html=1;align=center;verticalAlign=middle;resizable=0;points=[];autosize=1;strokeColor=none;fillColor=none;" parent="1" vertex="1">
          <mxGeometry x="-759" y="86" width="70" height="30" as="geometry" />
        </mxCell>
        <mxCell id="LqPaumKF4AQ05YwWMNbk-39" value="data i + 2" style="text;html=1;align=center;verticalAlign=middle;resizable=0;points=[];autosize=1;strokeColor=none;fillColor=none;" parent="1" vertex="1">
          <mxGeometry x="-759" y="103" width="70" height="30" as="geometry" />
        </mxCell>
        <mxCell id="LqPaumKF4AQ05YwWMNbk-40" value="data i + 1" style="text;html=1;align=center;verticalAlign=middle;resizable=0;points=[];autosize=1;strokeColor=none;fillColor=none;" parent="1" vertex="1">
          <mxGeometry x="-759" y="121" width="70" height="30" as="geometry" />
        </mxCell>
        <mxCell id="LqPaumKF4AQ05YwWMNbk-41" value="data i" style="text;html=1;align=center;verticalAlign=middle;resizable=0;points=[];autosize=1;strokeColor=none;fillColor=none;" parent="1" vertex="1">
          <mxGeometry x="-749" y="138" width="50" height="30" as="geometry" />
        </mxCell>
        <mxCell id="NYThNlFeUHZ_-tV4PY2E-1" value="" style="verticalLabelPosition=bottom;verticalAlign=top;html=1;shape=mxgraph.basic.patternFillRect;fillStyle=diagGrid;step=5;fillStrokeWidth=0.2;fillStrokeColor=#dddddd;fillColor=#67AB9F;" parent="1" vertex="1">
          <mxGeometry y="-4" width="10" height="990" as="geometry" />
        </mxCell>
        <mxCell id="D2oOb19byxSWU7CXDX52-36" value="" style="edgeStyle=orthogonalEdgeStyle;rounded=0;orthogonalLoop=1;jettySize=auto;html=1;" edge="1" parent="1" source="NYThNlFeUHZ_-tV4PY2E-8" target="NYThNlFeUHZ_-tV4PY2E-39">
          <mxGeometry relative="1" as="geometry" />
        </mxCell>
        <mxCell id="NYThNlFeUHZ_-tV4PY2E-8" value="&lt;b&gt;Encoder&lt;/b&gt;" style="rounded=1;whiteSpace=wrap;html=1;align=center;verticalAlign=top;" parent="1" vertex="1">
          <mxGeometry x="163" y="230" width="140" height="65" as="geometry" />
        </mxCell>
        <mxCell id="NYThNlFeUHZ_-tV4PY2E-27" value="" style="edgeStyle=orthogonalEdgeStyle;rounded=0;orthogonalLoop=1;jettySize=auto;html=1;" parent="1" edge="1">
          <mxGeometry relative="1" as="geometry">
            <mxPoint x="233" y="230" as="targetPoint" />
            <mxPoint x="233" y="210" as="sourcePoint" />
          </mxGeometry>
        </mxCell>
        <mxCell id="D2oOb19byxSWU7CXDX52-17" value="" style="edgeStyle=orthogonalEdgeStyle;rounded=0;orthogonalLoop=1;jettySize=auto;html=1;entryX=0;entryY=0.5;entryDx=0;entryDy=0;exitX=0.5;exitY=1;exitDx=0;exitDy=0;" edge="1" parent="1" source="NYThNlFeUHZ_-tV4PY2E-36" target="GgaFxnMZl0LJMFkfZewS-92">
          <mxGeometry relative="1" as="geometry" />
        </mxCell>
        <mxCell id="NYThNlFeUHZ_-tV4PY2E-36" value="Aggregation" style="whiteSpace=wrap;html=1;rounded=0;fillColor=#a20025;fontColor=#ffffff;strokeColor=#6F0000;" parent="1" vertex="1">
          <mxGeometry x="-490" y="500" width="120" height="20" as="geometry" />
        </mxCell>
        <mxCell id="D2oOb19byxSWU7CXDX52-37" value="" style="edgeStyle=orthogonalEdgeStyle;rounded=0;orthogonalLoop=1;jettySize=auto;html=1;entryX=0;entryY=0.5;entryDx=0;entryDy=0;exitX=0.5;exitY=1;exitDx=0;exitDy=0;" edge="1" parent="1" source="NYThNlFeUHZ_-tV4PY2E-39" target="NYThNlFeUHZ_-tV4PY2E-60">
          <mxGeometry relative="1" as="geometry" />
        </mxCell>
        <mxCell id="NYThNlFeUHZ_-tV4PY2E-39" value="Aggregation" style="whiteSpace=wrap;html=1;rounded=0;fillColor=#a20025;fontColor=#ffffff;strokeColor=#6F0000;" parent="1" vertex="1">
          <mxGeometry x="173" y="325" width="120" height="20" as="geometry" />
        </mxCell>
        <mxCell id="NYThNlFeUHZ_-tV4PY2E-59" value="" style="edgeStyle=orthogonalEdgeStyle;rounded=0;orthogonalLoop=1;jettySize=auto;html=1;" parent="1" source="NYThNlFeUHZ_-tV4PY2E-60" edge="1">
          <mxGeometry relative="1" as="geometry">
            <mxPoint x="355" y="450" as="targetPoint" />
          </mxGeometry>
        </mxCell>
        <mxCell id="NYThNlFeUHZ_-tV4PY2E-60" value="&lt;b&gt;concat&lt;/b&gt;" style="shape=hexagon;perimeter=hexagonPerimeter2;whiteSpace=wrap;html=1;fixedSize=1;fillColor=#e6d0de;gradientColor=#d5739d;strokeColor=#996185;" parent="1" vertex="1">
          <mxGeometry x="310" y="370" width="90" height="47" as="geometry" />
        </mxCell>
        <mxCell id="hCAOuvRscBsUDZSH-V96-2" value="&lt;b&gt;Decoder&lt;/b&gt;" style="rounded=1;whiteSpace=wrap;html=1;verticalAlign=top;" parent="1" vertex="1">
          <mxGeometry x="150" y="450" width="410" height="140" as="geometry" />
        </mxCell>
        <mxCell id="hCAOuvRscBsUDZSH-V96-3" style="edgeStyle=orthogonalEdgeStyle;rounded=0;orthogonalLoop=1;jettySize=auto;html=1;exitX=0.5;exitY=1;exitDx=0;exitDy=0;entryX=0.5;entryY=0;entryDx=0;entryDy=0;" parent="1" target="hCAOuvRscBsUDZSH-V96-6" edge="1">
          <mxGeometry relative="1" as="geometry">
            <Array as="points">
              <mxPoint x="339" y="510" />
              <mxPoint x="205" y="510" />
            </Array>
            <mxPoint x="339" y="494" as="sourcePoint" />
          </mxGeometry>
        </mxCell>
        <mxCell id="hCAOuvRscBsUDZSH-V96-4" style="edgeStyle=orthogonalEdgeStyle;rounded=0;orthogonalLoop=1;jettySize=auto;html=1;entryX=0.5;entryY=0;entryDx=0;entryDy=0;exitX=0.5;exitY=1;exitDx=0;exitDy=0;" parent="1" target="hCAOuvRscBsUDZSH-V96-9" edge="1">
          <mxGeometry relative="1" as="geometry">
            <Array as="points">
              <mxPoint x="374" y="510" />
              <mxPoint x="505" y="510" />
            </Array>
            <mxPoint x="374" y="494" as="sourcePoint" />
          </mxGeometry>
        </mxCell>
        <mxCell id="hCAOuvRscBsUDZSH-V96-5" value="LinearLayer" style="whiteSpace=wrap;html=1;rounded=0;fillColor=#f8cecc;strokeColor=#b85450;" parent="1" vertex="1">
          <mxGeometry x="307" y="474" width="100" height="20" as="geometry" />
        </mxCell>
        <mxCell id="hCAOuvRscBsUDZSH-V96-6" value="&lt;div style=&quot;&quot;&gt;&lt;span style=&quot;background-color: transparent; color: light-dark(rgb(0, 0, 0), rgb(255, 255, 255));&quot;&gt;Transform&amp;nbsp;&lt;/span&gt;&lt;span style=&quot;background-color: transparent;&quot;&gt;α&lt;/span&gt;&lt;/div&gt;&lt;span style=&quot;color: rgba(0, 0, 0, 0); font-family: monospace; font-size: 0px; text-wrap-mode: nowrap;&quot;&gt;&lt;span style=&quot;color: rgb(0, 0, 0); font-family: Helvetica; font-size: 12px; text-wrap-mode: wrap;&quot;&gt;LinearLayer x2&lt;/span&gt;%3CmxGraphModel%3E%3Croot%3E%3CmxCell%20id%3D%220%22%2F%3E%3CmxCell%20id%3D%221%22%20parent%3D%220%22%2F%3E%3CmxCell%20id%3D%222%22%20value%3D%22%22%20style%3D%22endArrow%3Dclassic%3Brounded%3D0%3BstrokeWidth%3D1%3BstartSize%3D1%3BendSize%3D1%3BsourcePerimeterSpacing%3D0%3BtargetPerimeterSpacing%3D0%3BexitX%3D0.417%3BexitY%3D0.667%3BexitDx%3D0%3BexitDy%3D0%3BexitPerimeter%3D0%3BverticalAlign%3Dbottom%3Bhtml%3D1%3B%22%20edge%3D%221%22%20parent%3D%221%22%3E%3CmxGeometry%20width%3D%2250%22%20height%3D%2250%22%20relative%3D%221%22%20as%3D%22geometry%22%3E%3CmxPoint%20x%3D%22326%22%20y%3D%22592.02%22%20as%3D%22sourcePoint%22%2F%3E%3CmxPoint%20x%3D%22335.96000000000004%22%20y%3D%22592%22%20as%3D%22targetPoint%22%2F%3E%3CArray%20as%3D%22points%22%2F%3E%3C%2FmxGeometry%3E%3C%2FmxCell%3E%3C%2Froot%3E%3C%2FmxGraphModel%3E&lt;/span&gt;" style="rounded=0;whiteSpace=wrap;html=1;align=center;fillColor=#f8cecc;strokeColor=#b85450;" parent="1" vertex="1">
          <mxGeometry x="160" y="530" width="90" height="40" as="geometry" />
        </mxCell>
        <mxCell id="hCAOuvRscBsUDZSH-V96-7" value="&lt;div style=&quot;&quot;&gt;&lt;span style=&quot;background-color: transparent; color: light-dark(rgb(0, 0, 0), rgb(255, 255, 255));&quot;&gt;Transform&amp;nbsp;&lt;/span&gt;&lt;span style=&quot;background-color: transparent;&quot;&gt;β&lt;/span&gt;&lt;/div&gt;LinearLayer x2" style="rounded=0;whiteSpace=wrap;html=1;align=center;fillColor=#f8cecc;strokeColor=#b85450;" parent="1" vertex="1">
          <mxGeometry x="263" y="530" width="87" height="40" as="geometry" />
        </mxCell>
        <mxCell id="hCAOuvRscBsUDZSH-V96-8" value="Transform&amp;nbsp;&lt;span style=&quot;&quot;&gt;γ&lt;br&gt;&lt;/span&gt;&lt;span style=&quot;text-wrap-mode: nowrap; color: rgba(0, 0, 0, 0); font-family: monospace; font-size: 0px;&quot;&gt;&lt;span style=&quot;color: rgb(0, 0, 0); font-family: Helvetica; font-size: 12px; text-wrap-mode: wrap;&quot;&gt;LinearLayer x2&lt;/span&gt;%3CmxGraphModel%3E%3Croot%3E%3CmxCell%20id%3D%220%22%2F%3E%3CmxCell%20id%3D%221%22%20parent%3D%220%22%2F%3E%3CmxCell%20id%3D%222%22%20value%3D%22%22%20style%3D%22endArrow%3Dclassic%3Brounded%3D0%3BstrokeWidth%3D1%3BstartSize%3D1%3BendSize%3D1%3BsourcePerimeterSpacing%3D0%3BtargetPerimeterSpacing%3D0%3BexitX%3D0.417%3BexitY%3D0.667%3BexitDx%3D0%3BexitDy%3D0%3BexitPerimeter%3D0%3BverticalAlign%3Dbottom%3Bhtml%3D1%3B%22%20edge%3D%221%22%20parent%3D%221%22%3E%3CmxGeometry%20width%3D%2250%22%20height%3D%2250%22%20relative%3D%221%22%20as%3D%22geometry%22%3E%3CmxPoint%20x%3D%22326%22%20y%3D%22592.02%22%20as%3D%22sourcePoint%22%2F%3E%3CmxPoint%20x%3D%22335.96000000000004%22%20y%3D%22592%22%20as%3D%22targetPoint%22%2F%3E%3CArray%20as%3D%22points%22%2F%3E%3C%2FmxGeometry%3E%3C%2FmxCell%3E%3C%2Froot%3E%3C%2FmxGraphModel%3E&lt;/span&gt;" style="rounded=0;whiteSpace=wrap;html=1;align=center;fillColor=#f8cecc;strokeColor=#b85450;" parent="1" vertex="1">
          <mxGeometry x="360" y="530" width="86" height="40" as="geometry" />
        </mxCell>
        <mxCell id="hCAOuvRscBsUDZSH-V96-9" value="&lt;div style=&quot;&quot;&gt;&lt;span style=&quot;background-color: transparent; color: light-dark(rgb(0, 0, 0), rgb(255, 255, 255));&quot;&gt;Transform&amp;nbsp;&lt;/span&gt;&lt;span style=&quot;background-color: transparent;&quot;&gt;ν&lt;/span&gt;&lt;/div&gt;&lt;span style=&quot;text-wrap-mode: nowrap; color: rgba(0, 0, 0, 0); font-family: monospace; font-size: 0px;&quot;&gt;&lt;span style=&quot;color: rgb(0, 0, 0); font-family: Helvetica; font-size: 12px; text-wrap-mode: wrap;&quot;&gt;LinearLayer x2&lt;/span&gt;%&amp;nbsp; vd3CmxGraphModel%3E%3Croot%3E%3CmxCell%20id%3D%220%22%2F%3E%3CmxCell%20id%3D%221%22%20parent%3D%220%22%2F%3E%3CmxCell%20id%3D%222%22%20value%3D%22%22%20style%3D%22endArrow%3Dclassic%3Brounded%3D0%3BstrokeWidth%3D1%3BstartSize%3D1%3BendSize%3D1%3BsourcePerimeterSpacing%3D0%3BtargetPerimeterSpacing%3D0%3BexitX%3D0.417%3BexitY%3D0.667%3BexitDx%3D0%3BexitDy%3D0%3BexitPerimeter%3D0%3BverticalAlign%3Dbottom%3Bhtml%3D1%3B%22%20edge%3D%221%22%20parent%3D%221%22%3E%3CmxGeometry%20width%3D%2250%22%20height%3D%2250%22%20relative%3D%221%22%20as%3D%22geometry%22%3E%3CmxPoint%20x%3D%22326%22%20y%3D%22592.02%22%20as%3D%22sourcePoint%22%2F%3E%3CmxPoint%20x%3D%22335.96000000000004%22%20y%3D%22592%22%20as%3D%22targetPoint%22%2F%3E%3CArray%20as%3D%22points%22%2F%3E%3C%2FmxGeometry%3E%3C%2FmxCell%3E%3C%2Froot%3E%3C%2FmxGraphModel%3E&lt;/span&gt;" style="rounded=0;whiteSpace=wrap;html=1;align=center;fillColor=#f8cecc;strokeColor=#b85450;" parent="1" vertex="1">
          <mxGeometry x="460" y="530" width="90" height="40" as="geometry" />
        </mxCell>
        <mxCell id="hCAOuvRscBsUDZSH-V96-10" value="" style="endArrow=classic;html=1;rounded=0;entryX=0.589;entryY=0.024;entryDx=0;entryDy=0;entryPerimeter=0;" parent="1" edge="1">
          <mxGeometry width="50" height="50" relative="1" as="geometry">
            <mxPoint x="408" y="510" as="sourcePoint" />
            <mxPoint x="408" y="531" as="targetPoint" />
          </mxGeometry>
        </mxCell>
        <mxCell id="hCAOuvRscBsUDZSH-V96-11" value="" style="endArrow=classic;html=1;rounded=0;entryX=0.589;entryY=0.024;entryDx=0;entryDy=0;entryPerimeter=0;" parent="1" edge="1">
          <mxGeometry width="50" height="50" relative="1" as="geometry">
            <mxPoint x="304" y="510" as="sourcePoint" />
            <mxPoint x="304" y="531" as="targetPoint" />
          </mxGeometry>
        </mxCell>
        <mxCell id="hCAOuvRscBsUDZSH-V96-12" value="&lt;span style=&quot;text-align: start;&quot;&gt;&lt;b&gt;α&lt;/b&gt;&lt;/span&gt;" style="rhombus;whiteSpace=wrap;html=1;fillColor=#647687;fontColor=#ffffff;strokeColor=#314354;" parent="1" vertex="1">
          <mxGeometry x="179" y="630" width="52" height="50" as="geometry" />
        </mxCell>
        <mxCell id="hCAOuvRscBsUDZSH-V96-13" value="&lt;span style=&quot;text-align: start;&quot;&gt;&lt;b&gt;β&lt;/b&gt;&lt;/span&gt;" style="rhombus;whiteSpace=wrap;html=1;fillColor=#647687;fontColor=#ffffff;strokeColor=#314354;" parent="1" vertex="1">
          <mxGeometry x="280" y="630" width="52" height="50" as="geometry" />
        </mxCell>
        <mxCell id="hCAOuvRscBsUDZSH-V96-14" value="&lt;span style=&quot;text-align: start;&quot;&gt;&lt;b&gt;γ&lt;/b&gt;&lt;/span&gt;" style="rhombus;whiteSpace=wrap;html=1;direction=south;fillColor=#647687;fontColor=#ffffff;strokeColor=#314354;" parent="1" vertex="1">
          <mxGeometry x="378" y="629" width="50" height="52" as="geometry" />
        </mxCell>
        <mxCell id="hCAOuvRscBsUDZSH-V96-15" value="&lt;span style=&quot;text-align: start;&quot;&gt;&lt;b&gt;ν&lt;/b&gt;&lt;/span&gt;" style="rhombus;whiteSpace=wrap;html=1;fillColor=#647687;fontColor=#ffffff;strokeColor=#314354;" parent="1" vertex="1">
          <mxGeometry x="479" y="630" width="52" height="50" as="geometry" />
        </mxCell>
        <mxCell id="hCAOuvRscBsUDZSH-V96-16" value="" style="endArrow=classic;html=1;rounded=0;exitX=0.5;exitY=1;exitDx=0;exitDy=0;entryX=0.5;entryY=0;entryDx=0;entryDy=0;" parent="1" source="hCAOuvRscBsUDZSH-V96-6" target="hCAOuvRscBsUDZSH-V96-12" edge="1">
          <mxGeometry width="50" height="50" relative="1" as="geometry">
            <mxPoint x="312" y="620" as="sourcePoint" />
            <mxPoint x="362" y="570" as="targetPoint" />
          </mxGeometry>
        </mxCell>
        <mxCell id="hCAOuvRscBsUDZSH-V96-17" value="" style="endArrow=classic;html=1;rounded=0;exitX=0.5;exitY=1;exitDx=0;exitDy=0;entryX=0.5;entryY=0;entryDx=0;entryDy=0;" parent="1" edge="1">
          <mxGeometry width="50" height="50" relative="1" as="geometry">
            <mxPoint x="306.5" y="570" as="sourcePoint" />
            <mxPoint x="306" y="630" as="targetPoint" />
          </mxGeometry>
        </mxCell>
        <mxCell id="hCAOuvRscBsUDZSH-V96-18" value="" style="endArrow=classic;html=1;rounded=0;exitX=0.5;exitY=1;exitDx=0;exitDy=0;entryX=0;entryY=0.5;entryDx=0;entryDy=0;" parent="1" source="hCAOuvRscBsUDZSH-V96-8" target="hCAOuvRscBsUDZSH-V96-14" edge="1">
          <mxGeometry width="50" height="50" relative="1" as="geometry">
            <mxPoint x="398" y="600" as="sourcePoint" />
            <mxPoint x="406" y="630" as="targetPoint" />
          </mxGeometry>
        </mxCell>
        <mxCell id="hCAOuvRscBsUDZSH-V96-19" value="" style="endArrow=classic;html=1;rounded=0;entryX=0.5;entryY=0;entryDx=0;entryDy=0;exitX=0.5;exitY=1;exitDx=0;exitDy=0;" parent="1" source="hCAOuvRscBsUDZSH-V96-9" target="hCAOuvRscBsUDZSH-V96-15" edge="1">
          <mxGeometry width="50" height="50" relative="1" as="geometry">
            <mxPoint x="511.9999999999998" y="570" as="sourcePoint" />
            <mxPoint x="504" y="650" as="targetPoint" />
          </mxGeometry>
        </mxCell>
        <mxCell id="hCAOuvRscBsUDZSH-V96-20" value="LinearLayer" style="whiteSpace=wrap;html=1;rounded=0;fillColor=#f8cecc;strokeColor=#b85450;" parent="1" vertex="1">
          <mxGeometry x="-490" y="260" width="120" height="20" as="geometry" />
        </mxCell>
        <mxCell id="hCAOuvRscBsUDZSH-V96-26" value="LinearLayer x5" style="whiteSpace=wrap;html=1;rounded=0;fillColor=#f8cecc;strokeColor=#b85450;" parent="1" vertex="1">
          <mxGeometry x="170" y="260" width="120" height="20" as="geometry" />
        </mxCell>
        <mxCell id="hCAOuvRscBsUDZSH-V96-49" value="Context Set" style="rounded=1;whiteSpace=wrap;html=1;labelPosition=center;verticalLabelPosition=top;align=center;verticalAlign=bottom;" parent="1" vertex="1">
          <mxGeometry x="-531" y="60" width="199" height="146" as="geometry" />
        </mxCell>
        <mxCell id="hCAOuvRscBsUDZSH-V96-102" value="&lt;b&gt;...&lt;span style=&quot;background-color: transparent; color: light-dark(rgb(0, 0, 0), rgb(255, 255, 255));&quot;&gt;..&lt;/span&gt;&lt;/b&gt;" style="text;html=1;align=center;verticalAlign=middle;resizable=0;points=[];autosize=1;strokeColor=none;fillColor=none;horizontal=0;" parent="1" vertex="1">
          <mxGeometry x="-453" y="116" width="40" height="30" as="geometry" />
        </mxCell>
        <mxCell id="hCAOuvRscBsUDZSH-V96-129" value="Context Set" style="rounded=1;whiteSpace=wrap;html=1;labelPosition=center;verticalLabelPosition=top;align=center;verticalAlign=bottom;" parent="1" vertex="1">
          <mxGeometry x="143" y="63" width="180" height="146" as="geometry" />
        </mxCell>
        <mxCell id="hCAOuvRscBsUDZSH-V96-130" value="" style="childLayout=tableLayout;recursiveResize=0;shadow=0;fillColor=none;fontSize=10;strokeWidth=1;" parent="1" vertex="1">
          <mxGeometry x="152" y="93" width="60" height="20" as="geometry" />
        </mxCell>
        <mxCell id="hCAOuvRscBsUDZSH-V96-131" style="shape=tableRow;horizontal=0;startSize=0;swimlaneHead=0;swimlaneBody=0;top=0;left=0;bottom=0;right=0;dropTarget=0;collapsible=0;recursiveResize=0;expand=0;fontStyle=0;fillColor=#e1d5e7;strokeColor=#9673a6;" parent="hCAOuvRscBsUDZSH-V96-130" vertex="1">
          <mxGeometry width="60" height="20" as="geometry" />
        </mxCell>
        <mxCell id="hCAOuvRscBsUDZSH-V96-132" value="&lt;span style=&quot;font-size: 10px;&quot;&gt;F&lt;sub&gt;1&lt;/sub&gt;&lt;/span&gt;" style="connectable=0;recursiveResize=0;strokeColor=inherit;fillColor=none;align=center;whiteSpace=wrap;html=1;" parent="hCAOuvRscBsUDZSH-V96-131" vertex="1">
          <mxGeometry width="20" height="20" as="geometry">
            <mxRectangle width="20" height="20" as="alternateBounds" />
          </mxGeometry>
        </mxCell>
        <mxCell id="hCAOuvRscBsUDZSH-V96-133" value="F&lt;sub&gt;2&lt;/sub&gt;" style="connectable=0;recursiveResize=0;strokeColor=inherit;fillColor=none;align=center;whiteSpace=wrap;html=1;" parent="hCAOuvRscBsUDZSH-V96-131" vertex="1">
          <mxGeometry x="20" width="20" height="20" as="geometry">
            <mxRectangle width="20" height="20" as="alternateBounds" />
          </mxGeometry>
        </mxCell>
        <mxCell id="hCAOuvRscBsUDZSH-V96-134" value="F&lt;sub&gt;3&lt;/sub&gt;" style="connectable=0;recursiveResize=0;strokeColor=inherit;fillColor=none;align=center;whiteSpace=wrap;html=1;" parent="hCAOuvRscBsUDZSH-V96-131" vertex="1">
          <mxGeometry x="40" width="20" height="20" as="geometry">
            <mxRectangle width="20" height="20" as="alternateBounds" />
          </mxGeometry>
        </mxCell>
        <mxCell id="hCAOuvRscBsUDZSH-V96-135" value="" style="childLayout=tableLayout;recursiveResize=0;shadow=0;fillColor=none;fontSize=10;strokeWidth=1;" parent="1" vertex="1">
          <mxGeometry x="212" y="93" width="60" height="20" as="geometry" />
        </mxCell>
        <mxCell id="hCAOuvRscBsUDZSH-V96-136" style="shape=tableRow;horizontal=0;startSize=0;swimlaneHead=0;swimlaneBody=0;top=0;left=0;bottom=0;right=0;dropTarget=0;collapsible=0;recursiveResize=0;expand=0;fontStyle=0;fillColor=#e1d5e7;strokeColor=#9673a6;" parent="hCAOuvRscBsUDZSH-V96-135" vertex="1">
          <mxGeometry width="60" height="20" as="geometry" />
        </mxCell>
        <mxCell id="hCAOuvRscBsUDZSH-V96-137" value="F&lt;sub&gt;4&lt;/sub&gt;" style="connectable=0;recursiveResize=0;strokeColor=inherit;fillColor=none;align=center;whiteSpace=wrap;html=1;" parent="hCAOuvRscBsUDZSH-V96-136" vertex="1">
          <mxGeometry width="20" height="20" as="geometry">
            <mxRectangle width="20" height="20" as="alternateBounds" />
          </mxGeometry>
        </mxCell>
        <mxCell id="hCAOuvRscBsUDZSH-V96-138" value="..." style="connectable=0;recursiveResize=0;strokeColor=inherit;fillColor=none;align=center;whiteSpace=wrap;html=1;" parent="hCAOuvRscBsUDZSH-V96-136" vertex="1">
          <mxGeometry x="20" width="20" height="20" as="geometry">
            <mxRectangle width="20" height="20" as="alternateBounds" />
          </mxGeometry>
        </mxCell>
        <mxCell id="hCAOuvRscBsUDZSH-V96-139" value="F&lt;sub&gt;k&lt;/sub&gt;" style="connectable=0;recursiveResize=0;strokeColor=inherit;fillColor=none;align=center;whiteSpace=wrap;html=1;" parent="hCAOuvRscBsUDZSH-V96-136" vertex="1">
          <mxGeometry x="40" width="20" height="20" as="geometry">
            <mxRectangle width="20" height="20" as="alternateBounds" />
          </mxGeometry>
        </mxCell>
        <mxCell id="hCAOuvRscBsUDZSH-V96-140" value="X&lt;sub&gt;1&lt;/sub&gt;" style="rounded=0;whiteSpace=wrap;html=1;strokeWidth=1;fillColor=#f5f5f5;fontColor=#333333;strokeColor=#666666;" parent="1" vertex="1">
          <mxGeometry x="152" y="73" width="120" height="20" as="geometry" />
        </mxCell>
        <mxCell id="hCAOuvRscBsUDZSH-V96-141" value="Y&lt;sub&gt;1&lt;/sub&gt;" style="rounded=0;whiteSpace=wrap;html=1;strokeWidth=1;fillColor=#f5f5f5;fontColor=#333333;strokeColor=#666666;" parent="1" vertex="1">
          <mxGeometry x="276" y="73" width="37" height="20" as="geometry" />
        </mxCell>
        <mxCell id="hCAOuvRscBsUDZSH-V96-142" value="Close" style="rounded=0;whiteSpace=wrap;html=1;strokeWidth=1;fillColor=#dae8fc;strokeColor=#6c8ebf;" parent="1" vertex="1">
          <mxGeometry x="276" y="93" width="37" height="20" as="geometry" />
        </mxCell>
        <mxCell id="hCAOuvRscBsUDZSH-V96-143" value="&lt;b&gt;...&lt;span style=&quot;background-color: transparent; color: light-dark(rgb(0, 0, 0), rgb(255, 255, 255));&quot;&gt;..&lt;/span&gt;&lt;/b&gt;" style="text;html=1;align=center;verticalAlign=middle;resizable=0;points=[];autosize=1;strokeColor=none;fillColor=none;horizontal=0;" parent="1" vertex="1">
          <mxGeometry x="203" y="118" width="40" height="30" as="geometry" />
        </mxCell>
        <mxCell id="hCAOuvRscBsUDZSH-V96-144" value="" style="childLayout=tableLayout;recursiveResize=0;shadow=0;fillColor=#e1d5e7;fontSize=10;strokeWidth=1;strokeColor=#9673a6;" parent="1" vertex="1">
          <mxGeometry x="153" y="168" width="60" height="20" as="geometry" />
        </mxCell>
        <mxCell id="hCAOuvRscBsUDZSH-V96-145" style="shape=tableRow;horizontal=0;startSize=0;swimlaneHead=0;swimlaneBody=0;top=0;left=0;bottom=0;right=0;dropTarget=0;collapsible=0;recursiveResize=0;expand=0;fontStyle=0;fillColor=none;strokeColor=inherit;" parent="hCAOuvRscBsUDZSH-V96-144" vertex="1">
          <mxGeometry width="60" height="20" as="geometry" />
        </mxCell>
        <mxCell id="hCAOuvRscBsUDZSH-V96-146" value="&lt;span style=&quot;font-size: 10px;&quot;&gt;F&lt;sub&gt;1&lt;/sub&gt;&lt;/span&gt;" style="connectable=0;recursiveResize=0;strokeColor=inherit;fillColor=none;align=center;whiteSpace=wrap;html=1;" parent="hCAOuvRscBsUDZSH-V96-145" vertex="1">
          <mxGeometry width="20" height="20" as="geometry">
            <mxRectangle width="20" height="20" as="alternateBounds" />
          </mxGeometry>
        </mxCell>
        <mxCell id="hCAOuvRscBsUDZSH-V96-147" value="F&lt;sub&gt;2&lt;/sub&gt;" style="connectable=0;recursiveResize=0;strokeColor=inherit;fillColor=none;align=center;whiteSpace=wrap;html=1;" parent="hCAOuvRscBsUDZSH-V96-145" vertex="1">
          <mxGeometry x="20" width="20" height="20" as="geometry">
            <mxRectangle width="20" height="20" as="alternateBounds" />
          </mxGeometry>
        </mxCell>
        <mxCell id="hCAOuvRscBsUDZSH-V96-148" value="F&lt;sub&gt;3&lt;/sub&gt;" style="connectable=0;recursiveResize=0;strokeColor=inherit;fillColor=none;align=center;whiteSpace=wrap;html=1;" parent="hCAOuvRscBsUDZSH-V96-145" vertex="1">
          <mxGeometry x="40" width="20" height="20" as="geometry">
            <mxRectangle width="20" height="20" as="alternateBounds" />
          </mxGeometry>
        </mxCell>
        <mxCell id="hCAOuvRscBsUDZSH-V96-149" value="" style="childLayout=tableLayout;recursiveResize=0;shadow=0;fillColor=#e1d5e7;fontSize=10;strokeWidth=1;strokeColor=#9673a6;" parent="1" vertex="1">
          <mxGeometry x="213" y="168" width="60" height="20" as="geometry" />
        </mxCell>
        <mxCell id="hCAOuvRscBsUDZSH-V96-150" style="shape=tableRow;horizontal=0;startSize=0;swimlaneHead=0;swimlaneBody=0;top=0;left=0;bottom=0;right=0;dropTarget=0;collapsible=0;recursiveResize=0;expand=0;fontStyle=0;fillColor=none;strokeColor=inherit;" parent="hCAOuvRscBsUDZSH-V96-149" vertex="1">
          <mxGeometry width="60" height="20" as="geometry" />
        </mxCell>
        <mxCell id="hCAOuvRscBsUDZSH-V96-151" value="F&lt;sub&gt;4&lt;/sub&gt;" style="connectable=0;recursiveResize=0;strokeColor=inherit;fillColor=none;align=center;whiteSpace=wrap;html=1;" parent="hCAOuvRscBsUDZSH-V96-150" vertex="1">
          <mxGeometry width="20" height="20" as="geometry">
            <mxRectangle width="20" height="20" as="alternateBounds" />
          </mxGeometry>
        </mxCell>
        <mxCell id="hCAOuvRscBsUDZSH-V96-152" value="..." style="connectable=0;recursiveResize=0;strokeColor=inherit;fillColor=none;align=center;whiteSpace=wrap;html=1;" parent="hCAOuvRscBsUDZSH-V96-150" vertex="1">
          <mxGeometry x="20" width="20" height="20" as="geometry">
            <mxRectangle width="20" height="20" as="alternateBounds" />
          </mxGeometry>
        </mxCell>
        <mxCell id="hCAOuvRscBsUDZSH-V96-153" value="F&lt;sub&gt;k&lt;/sub&gt;" style="connectable=0;recursiveResize=0;strokeColor=inherit;fillColor=none;align=center;whiteSpace=wrap;html=1;" parent="hCAOuvRscBsUDZSH-V96-150" vertex="1">
          <mxGeometry x="40" width="20" height="20" as="geometry">
            <mxRectangle width="20" height="20" as="alternateBounds" />
          </mxGeometry>
        </mxCell>
        <mxCell id="hCAOuvRscBsUDZSH-V96-154" value="X&lt;sub&gt;N&lt;/sub&gt;&lt;sub&gt;c&lt;/sub&gt;" style="rounded=0;whiteSpace=wrap;html=1;strokeWidth=1;fillColor=#f5f5f5;fontColor=#333333;strokeColor=#666666;" parent="1" vertex="1">
          <mxGeometry x="153" y="148" width="120" height="20" as="geometry" />
        </mxCell>
        <mxCell id="hCAOuvRscBsUDZSH-V96-155" value="Y&lt;sub&gt;N&lt;/sub&gt;&lt;sub&gt;c&lt;/sub&gt;" style="rounded=0;whiteSpace=wrap;html=1;strokeWidth=1;fillColor=#f5f5f5;fontColor=#333333;strokeColor=#666666;" parent="1" vertex="1">
          <mxGeometry x="277" y="148" width="37" height="20" as="geometry" />
        </mxCell>
        <mxCell id="hCAOuvRscBsUDZSH-V96-156" value="Close" style="rounded=0;whiteSpace=wrap;html=1;strokeWidth=1;fillColor=#dae8fc;strokeColor=#6c8ebf;" parent="1" vertex="1">
          <mxGeometry x="277" y="168" width="37" height="20" as="geometry" />
        </mxCell>
        <mxCell id="D2oOb19byxSWU7CXDX52-46" style="edgeStyle=orthogonalEdgeStyle;rounded=0;orthogonalLoop=1;jettySize=auto;html=1;entryX=1;entryY=0.5;entryDx=0;entryDy=0;" edge="1" parent="1" source="hCAOuvRscBsUDZSH-V96-157" target="NYThNlFeUHZ_-tV4PY2E-60">
          <mxGeometry relative="1" as="geometry">
            <mxPoint x="461" y="404.1175824333641" as="targetPoint" />
          </mxGeometry>
        </mxCell>
        <mxCell id="hCAOuvRscBsUDZSH-V96-157" value="Target Set" style="rounded=1;whiteSpace=wrap;html=1;labelPosition=center;verticalLabelPosition=top;align=center;verticalAlign=bottom;" parent="1" vertex="1">
          <mxGeometry x="371" y="140" width="180" height="70" as="geometry" />
        </mxCell>
        <mxCell id="hCAOuvRscBsUDZSH-V96-158" value="" style="childLayout=tableLayout;recursiveResize=0;shadow=0;fillColor=#e1d5e7;fontSize=10;strokeWidth=1;strokeColor=#9673a6;" parent="1" vertex="1">
          <mxGeometry x="380" y="174" width="60" height="20" as="geometry" />
        </mxCell>
        <mxCell id="hCAOuvRscBsUDZSH-V96-159" style="shape=tableRow;horizontal=0;startSize=0;swimlaneHead=0;swimlaneBody=0;top=0;left=0;bottom=0;right=0;dropTarget=0;collapsible=0;recursiveResize=0;expand=0;fontStyle=0;fillColor=none;strokeColor=inherit;" parent="hCAOuvRscBsUDZSH-V96-158" vertex="1">
          <mxGeometry width="60" height="20" as="geometry" />
        </mxCell>
        <mxCell id="hCAOuvRscBsUDZSH-V96-160" value="&lt;span style=&quot;font-size: 10px;&quot;&gt;F&lt;sub&gt;1&lt;/sub&gt;&lt;/span&gt;" style="connectable=0;recursiveResize=0;strokeColor=inherit;fillColor=none;align=center;whiteSpace=wrap;html=1;" parent="hCAOuvRscBsUDZSH-V96-159" vertex="1">
          <mxGeometry width="20" height="20" as="geometry">
            <mxRectangle width="20" height="20" as="alternateBounds" />
          </mxGeometry>
        </mxCell>
        <mxCell id="hCAOuvRscBsUDZSH-V96-161" value="F&lt;sub&gt;2&lt;/sub&gt;" style="connectable=0;recursiveResize=0;strokeColor=inherit;fillColor=none;align=center;whiteSpace=wrap;html=1;" parent="hCAOuvRscBsUDZSH-V96-159" vertex="1">
          <mxGeometry x="20" width="20" height="20" as="geometry">
            <mxRectangle width="20" height="20" as="alternateBounds" />
          </mxGeometry>
        </mxCell>
        <mxCell id="hCAOuvRscBsUDZSH-V96-162" value="F&lt;sub&gt;3&lt;/sub&gt;" style="connectable=0;recursiveResize=0;strokeColor=inherit;fillColor=none;align=center;whiteSpace=wrap;html=1;" parent="hCAOuvRscBsUDZSH-V96-159" vertex="1">
          <mxGeometry x="40" width="20" height="20" as="geometry">
            <mxRectangle width="20" height="20" as="alternateBounds" />
          </mxGeometry>
        </mxCell>
        <mxCell id="hCAOuvRscBsUDZSH-V96-163" value="" style="childLayout=tableLayout;recursiveResize=0;shadow=0;fillColor=#e1d5e7;fontSize=10;strokeWidth=1;strokeColor=#9673a6;" parent="1" vertex="1">
          <mxGeometry x="440" y="174" width="60" height="20" as="geometry" />
        </mxCell>
        <mxCell id="hCAOuvRscBsUDZSH-V96-164" style="shape=tableRow;horizontal=0;startSize=0;swimlaneHead=0;swimlaneBody=0;top=0;left=0;bottom=0;right=0;dropTarget=0;collapsible=0;recursiveResize=0;expand=0;fontStyle=0;fillColor=none;strokeColor=inherit;" parent="hCAOuvRscBsUDZSH-V96-163" vertex="1">
          <mxGeometry width="60" height="20" as="geometry" />
        </mxCell>
        <mxCell id="hCAOuvRscBsUDZSH-V96-165" value="F&lt;sub&gt;4&lt;/sub&gt;" style="connectable=0;recursiveResize=0;strokeColor=inherit;fillColor=none;align=center;whiteSpace=wrap;html=1;" parent="hCAOuvRscBsUDZSH-V96-164" vertex="1">
          <mxGeometry width="20" height="20" as="geometry">
            <mxRectangle width="20" height="20" as="alternateBounds" />
          </mxGeometry>
        </mxCell>
        <mxCell id="hCAOuvRscBsUDZSH-V96-166" value="..." style="connectable=0;recursiveResize=0;strokeColor=inherit;fillColor=none;align=center;whiteSpace=wrap;html=1;" parent="hCAOuvRscBsUDZSH-V96-164" vertex="1">
          <mxGeometry x="20" width="20" height="20" as="geometry">
            <mxRectangle width="20" height="20" as="alternateBounds" />
          </mxGeometry>
        </mxCell>
        <mxCell id="hCAOuvRscBsUDZSH-V96-167" value="F&lt;sub&gt;k&lt;/sub&gt;" style="connectable=0;recursiveResize=0;strokeColor=inherit;fillColor=none;align=center;whiteSpace=wrap;html=1;" parent="hCAOuvRscBsUDZSH-V96-164" vertex="1">
          <mxGeometry x="40" width="20" height="20" as="geometry">
            <mxRectangle width="20" height="20" as="alternateBounds" />
          </mxGeometry>
        </mxCell>
        <mxCell id="hCAOuvRscBsUDZSH-V96-168" value="X&lt;span style=&quot;font-size: 10px;&quot;&gt;t&lt;/span&gt;" style="rounded=0;whiteSpace=wrap;html=1;strokeWidth=1;fillColor=#f5f5f5;fontColor=#333333;strokeColor=#666666;" parent="1" vertex="1">
          <mxGeometry x="380" y="154" width="120" height="20" as="geometry" />
        </mxCell>
        <mxCell id="hCAOuvRscBsUDZSH-V96-169" value="Y&lt;span style=&quot;font-size: 10px;&quot;&gt;t&lt;/span&gt;" style="rounded=0;whiteSpace=wrap;html=1;strokeWidth=1;fillColor=#f5f5f5;fontColor=#333333;strokeColor=#666666;" parent="1" vertex="1">
          <mxGeometry x="504" y="154" width="37" height="20" as="geometry" />
        </mxCell>
        <mxCell id="hCAOuvRscBsUDZSH-V96-170" value="Close" style="rounded=0;whiteSpace=wrap;html=1;strokeWidth=1;fillColor=#dae8fc;strokeColor=#6c8ebf;" parent="1" vertex="1">
          <mxGeometry x="504" y="174" width="37" height="20" as="geometry" />
        </mxCell>
        <mxCell id="hCAOuvRscBsUDZSH-V96-198" value="Target Set" style="rounded=1;whiteSpace=wrap;html=1;labelPosition=center;verticalLabelPosition=top;align=center;verticalAlign=bottom;" parent="1" vertex="1">
          <mxGeometry x="-299" y="140" width="194" height="68" as="geometry" />
        </mxCell>
        <mxCell id="hCAOuvRscBsUDZSH-V96-226" value="" style="shape=cube;whiteSpace=wrap;html=1;boundedLbl=1;backgroundOutline=1;darkOpacity=0.05;darkOpacity2=0.1;fillColor=#dae8fc;strokeColor=#6c8ebf;" parent="1" vertex="1">
          <mxGeometry x="-311" y="-227" width="120" height="80" as="geometry" />
        </mxCell>
        <mxCell id="hCAOuvRscBsUDZSH-V96-227" value="&lt;font style=&quot;font-size: 10px;&quot;&gt;data window = 10&lt;/font&gt;" style="text;html=1;align=center;verticalAlign=middle;resizable=0;points=[];autosize=1;strokeColor=none;fillColor=none;horizontal=0;rotation=135;" parent="1" vertex="1">
          <mxGeometry x="-185" y="-287" width="40" height="90" as="geometry" />
        </mxCell>
        <mxCell id="hCAOuvRscBsUDZSH-V96-229" value="" style="endArrow=classic;html=1;rounded=0;entryX=0.86;entryY=0.558;entryDx=0;entryDy=0;entryPerimeter=0;" parent="1" target="hCAOuvRscBsUDZSH-V96-227" edge="1">
          <mxGeometry width="50" height="50" relative="1" as="geometry">
            <mxPoint x="-200" y="-217" as="sourcePoint" />
            <mxPoint x="-180" y="-240" as="targetPoint" />
          </mxGeometry>
        </mxCell>
        <mxCell id="hCAOuvRscBsUDZSH-V96-230" value="" style="endArrow=classic;html=1;rounded=0;exitX=0;exitY=0;exitDx=50;exitDy=0;exitPerimeter=0;entryX=0.501;entryY=0.943;entryDx=0;entryDy=0;entryPerimeter=0;" parent="1" source="hCAOuvRscBsUDZSH-V96-226" target="hCAOuvRscBsUDZSH-V96-231" edge="1">
          <mxGeometry width="50" height="50" relative="1" as="geometry">
            <mxPoint x="-242" y="-207" as="sourcePoint" />
            <mxPoint x="-242" y="-290" as="targetPoint" />
          </mxGeometry>
        </mxCell>
        <mxCell id="hCAOuvRscBsUDZSH-V96-231" value="&lt;font style=&quot;font-size: 10px;&quot;&gt;Feature Number = k&lt;/font&gt;" style="text;html=1;align=center;verticalAlign=middle;resizable=0;points=[];autosize=1;strokeColor=none;fillColor=none;" parent="1" vertex="1">
          <mxGeometry x="-317" y="-317" width="110" height="30" as="geometry" />
        </mxCell>
        <mxCell id="hCAOuvRscBsUDZSH-V96-234" value="" style="endArrow=classic;html=1;rounded=0;exitX=0;exitY=0;exitDx=0;exitDy=30;exitPerimeter=0;entryX=0.511;entryY=1.071;entryDx=0;entryDy=0;entryPerimeter=0;" parent="1" source="hCAOuvRscBsUDZSH-V96-226" target="hCAOuvRscBsUDZSH-V96-235" edge="1">
          <mxGeometry width="50" height="50" relative="1" as="geometry">
            <mxPoint x="-380" y="-200" as="sourcePoint" />
            <mxPoint x="-350" y="-240" as="targetPoint" />
          </mxGeometry>
        </mxCell>
        <mxCell id="hCAOuvRscBsUDZSH-V96-235" value="&lt;font style=&quot;font-size: 10px;&quot;&gt;Number of Context point = N&lt;sub style=&quot;&quot;&gt;c&lt;/sub&gt;&lt;/font&gt;" style="text;html=1;align=center;verticalAlign=middle;resizable=0;points=[];autosize=1;strokeColor=none;fillColor=none;rotation=320;" parent="1" vertex="1">
          <mxGeometry x="-445" y="-257" width="150" height="30" as="geometry" />
        </mxCell>
        <mxCell id="hCAOuvRscBsUDZSH-V96-240" value="LayerNorm" style="whiteSpace=wrap;html=1;rounded=0;fillColor=#fff2cc;strokeColor=#d6b656;" parent="1" vertex="1">
          <mxGeometry x="-491" y="352" width="120" height="20" as="geometry" />
        </mxCell>
        <mxCell id="D2oOb19byxSWU7CXDX52-4" value="" style="endArrow=none;html=1;rounded=0;entryX=0.496;entryY=0.33;entryDx=0;entryDy=0;entryPerimeter=0;exitX=0.65;exitY=0.018;exitDx=0;exitDy=0;exitPerimeter=0;" edge="1" parent="1" source="GgaFxnMZl0LJMFkfZewS-26">
          <mxGeometry width="50" height="50" relative="1" as="geometry">
            <mxPoint x="-412.08000000000004" y="312.26" as="sourcePoint" />
            <mxPoint x="-412.0000000000001" y="295.376" as="targetPoint" />
          </mxGeometry>
        </mxCell>
        <mxCell id="D2oOb19byxSWU7CXDX52-7" value="" style="endArrow=none;html=1;rounded=0;entryX=0.496;entryY=0.33;entryDx=0;entryDy=0;entryPerimeter=0;exitX=0.367;exitY=0.002;exitDx=0;exitDy=0;exitPerimeter=0;" edge="1" parent="1" source="GgaFxnMZl0LJMFkfZewS-26">
          <mxGeometry width="50" height="50" relative="1" as="geometry">
            <mxPoint x="-446" y="312" as="sourcePoint" />
            <mxPoint x="-446" y="295" as="targetPoint" />
          </mxGeometry>
        </mxCell>
        <mxCell id="D2oOb19byxSWU7CXDX52-9" value="" style="edgeStyle=orthogonalEdgeStyle;rounded=0;orthogonalLoop=1;jettySize=auto;html=1;" edge="1" parent="1">
          <mxGeometry relative="1" as="geometry">
            <mxPoint x="-480" y="311" as="targetPoint" />
            <mxPoint x="-480" y="290" as="sourcePoint" />
          </mxGeometry>
        </mxCell>
        <mxCell id="D2oOb19byxSWU7CXDX52-10" value="" style="edgeStyle=orthogonalEdgeStyle;rounded=0;orthogonalLoop=1;jettySize=auto;html=1;" edge="1" parent="1">
          <mxGeometry relative="1" as="geometry">
            <mxPoint x="-446" y="311" as="targetPoint" />
            <mxPoint x="-446" y="290" as="sourcePoint" />
          </mxGeometry>
        </mxCell>
        <mxCell id="D2oOb19byxSWU7CXDX52-11" value="" style="edgeStyle=orthogonalEdgeStyle;rounded=0;orthogonalLoop=1;jettySize=auto;html=1;" edge="1" parent="1">
          <mxGeometry relative="1" as="geometry">
            <mxPoint x="-412" y="311" as="targetPoint" />
            <mxPoint x="-412" y="290" as="sourcePoint" />
          </mxGeometry>
        </mxCell>
        <mxCell id="D2oOb19byxSWU7CXDX52-12" value="" style="edgeStyle=orthogonalEdgeStyle;rounded=0;orthogonalLoop=1;jettySize=auto;html=1;" edge="1" parent="1">
          <mxGeometry relative="1" as="geometry">
            <mxPoint x="-380" y="311" as="targetPoint" />
            <mxPoint x="-380" y="290" as="sourcePoint" />
          </mxGeometry>
        </mxCell>
        <mxCell id="D2oOb19byxSWU7CXDX52-13" value="" style="endArrow=none;html=1;rounded=0;" edge="1" parent="1">
          <mxGeometry width="50" height="50" relative="1" as="geometry">
            <mxPoint x="-480" y="290" as="sourcePoint" />
            <mxPoint x="-380" y="290" as="targetPoint" />
          </mxGeometry>
        </mxCell>
        <mxCell id="D2oOb19byxSWU7CXDX52-14" value="" style="endArrow=none;html=1;rounded=0;entryX=0.5;entryY=1;entryDx=0;entryDy=0;" edge="1" parent="1" target="hCAOuvRscBsUDZSH-V96-20">
          <mxGeometry width="50" height="50" relative="1" as="geometry">
            <mxPoint x="-430" y="290" as="sourcePoint" />
            <mxPoint x="-440" y="280" as="targetPoint" />
          </mxGeometry>
        </mxCell>
        <mxCell id="D2oOb19byxSWU7CXDX52-15" value="" style="edgeStyle=orthogonalEdgeStyle;rounded=0;orthogonalLoop=1;jettySize=auto;html=1;" edge="1" parent="1">
          <mxGeometry relative="1" as="geometry">
            <mxPoint x="-430" y="372" as="sourcePoint" />
            <mxPoint x="-430" y="392" as="targetPoint" />
          </mxGeometry>
        </mxCell>
        <mxCell id="D2oOb19byxSWU7CXDX52-18" value="" style="edgeStyle=orthogonalEdgeStyle;rounded=0;orthogonalLoop=1;jettySize=auto;html=1;" edge="1" parent="1" source="D2oOb19byxSWU7CXDX52-19" target="D2oOb19byxSWU7CXDX52-25">
          <mxGeometry relative="1" as="geometry" />
        </mxCell>
        <mxCell id="D2oOb19byxSWU7CXDX52-19" value="&lt;b&gt;Transformer Encoder&lt;/b&gt;" style="rounded=1;whiteSpace=wrap;html=1;align=center;verticalAlign=top;" vertex="1" parent="1">
          <mxGeometry x="-270" y="230" width="140" height="230" as="geometry" />
        </mxCell>
        <mxCell id="D2oOb19byxSWU7CXDX52-20" value="" style="edgeStyle=orthogonalEdgeStyle;rounded=0;orthogonalLoop=1;jettySize=auto;html=1;" edge="1" parent="1" source="D2oOb19byxSWU7CXDX52-21">
          <mxGeometry relative="1" as="geometry">
            <mxPoint x="-200" y="352" as="targetPoint" />
          </mxGeometry>
        </mxCell>
        <mxCell id="D2oOb19byxSWU7CXDX52-21" value="MultiheadAttention" style="rounded=0;whiteSpace=wrap;html=1;fillColor=#0050ef;strokeColor=#001DBC;fontColor=#ffffff;" vertex="1" parent="1">
          <mxGeometry x="-260" y="311" width="120" height="20" as="geometry" />
        </mxCell>
        <mxCell id="D2oOb19byxSWU7CXDX52-22" value="LinearLayer x2" style="whiteSpace=wrap;html=1;rounded=0;fillColor=#f8cecc;strokeColor=#b85450;" vertex="1" parent="1">
          <mxGeometry x="-260" y="392" width="120" height="20" as="geometry" />
        </mxCell>
        <mxCell id="D2oOb19byxSWU7CXDX52-23" value="LayerNorm" style="whiteSpace=wrap;html=1;rounded=0;fillColor=#fff2cc;strokeColor=#d6b656;" vertex="1" parent="1">
          <mxGeometry x="-260" y="432" width="120" height="20" as="geometry" />
        </mxCell>
        <mxCell id="D2oOb19byxSWU7CXDX52-24" value="" style="edgeStyle=orthogonalEdgeStyle;rounded=0;orthogonalLoop=1;jettySize=auto;html=1;" edge="1" parent="1">
          <mxGeometry relative="1" as="geometry">
            <mxPoint x="-200" y="412" as="sourcePoint" />
            <mxPoint x="-200" y="432" as="targetPoint" />
          </mxGeometry>
        </mxCell>
        <mxCell id="D2oOb19byxSWU7CXDX52-35" value="" style="edgeStyle=orthogonalEdgeStyle;rounded=0;orthogonalLoop=1;jettySize=auto;html=1;entryX=1;entryY=0.5;entryDx=0;entryDy=0;exitX=0.5;exitY=1;exitDx=0;exitDy=0;" edge="1" parent="1" source="D2oOb19byxSWU7CXDX52-25" target="GgaFxnMZl0LJMFkfZewS-92">
          <mxGeometry relative="1" as="geometry" />
        </mxCell>
        <mxCell id="D2oOb19byxSWU7CXDX52-25" value="Aggregation" style="whiteSpace=wrap;html=1;rounded=0;fillColor=#a20025;fontColor=#ffffff;strokeColor=#6F0000;" vertex="1" parent="1">
          <mxGeometry x="-260" y="500" width="120" height="20" as="geometry" />
        </mxCell>
        <mxCell id="D2oOb19byxSWU7CXDX52-26" value="LinearLayer" style="whiteSpace=wrap;html=1;rounded=0;fillColor=#f8cecc;strokeColor=#b85450;" vertex="1" parent="1">
          <mxGeometry x="-260" y="260" width="120" height="20" as="geometry" />
        </mxCell>
        <mxCell id="D2oOb19byxSWU7CXDX52-27" value="LayerNorm" style="whiteSpace=wrap;html=1;rounded=0;fillColor=#fff2cc;strokeColor=#d6b656;" vertex="1" parent="1">
          <mxGeometry x="-261" y="352" width="120" height="20" as="geometry" />
        </mxCell>
        <mxCell id="D2oOb19byxSWU7CXDX52-28" value="" style="edgeStyle=orthogonalEdgeStyle;rounded=0;orthogonalLoop=1;jettySize=auto;html=1;" edge="1" parent="1">
          <mxGeometry relative="1" as="geometry">
            <mxPoint x="-250" y="311" as="targetPoint" />
            <mxPoint x="-250" y="290" as="sourcePoint" />
          </mxGeometry>
        </mxCell>
        <mxCell id="D2oOb19byxSWU7CXDX52-29" value="" style="edgeStyle=orthogonalEdgeStyle;rounded=0;orthogonalLoop=1;jettySize=auto;html=1;" edge="1" parent="1">
          <mxGeometry relative="1" as="geometry">
            <mxPoint x="-216" y="311" as="targetPoint" />
            <mxPoint x="-216" y="290" as="sourcePoint" />
          </mxGeometry>
        </mxCell>
        <mxCell id="D2oOb19byxSWU7CXDX52-30" value="" style="edgeStyle=orthogonalEdgeStyle;rounded=0;orthogonalLoop=1;jettySize=auto;html=1;" edge="1" parent="1">
          <mxGeometry relative="1" as="geometry">
            <mxPoint x="-182" y="311" as="targetPoint" />
            <mxPoint x="-182" y="290" as="sourcePoint" />
          </mxGeometry>
        </mxCell>
        <mxCell id="D2oOb19byxSWU7CXDX52-31" value="" style="edgeStyle=orthogonalEdgeStyle;rounded=0;orthogonalLoop=1;jettySize=auto;html=1;" edge="1" parent="1">
          <mxGeometry relative="1" as="geometry">
            <mxPoint x="-150" y="311" as="targetPoint" />
            <mxPoint x="-150" y="290" as="sourcePoint" />
          </mxGeometry>
        </mxCell>
        <mxCell id="D2oOb19byxSWU7CXDX52-32" value="" style="endArrow=none;html=1;rounded=0;entryX=0.5;entryY=1;entryDx=0;entryDy=0;" edge="1" parent="1" target="D2oOb19byxSWU7CXDX52-26">
          <mxGeometry width="50" height="50" relative="1" as="geometry">
            <mxPoint x="-200" y="290" as="sourcePoint" />
            <mxPoint x="-210" y="280" as="targetPoint" />
          </mxGeometry>
        </mxCell>
        <mxCell id="D2oOb19byxSWU7CXDX52-33" value="" style="edgeStyle=orthogonalEdgeStyle;rounded=0;orthogonalLoop=1;jettySize=auto;html=1;" edge="1" parent="1">
          <mxGeometry relative="1" as="geometry">
            <mxPoint x="-200" y="372" as="sourcePoint" />
            <mxPoint x="-200" y="392" as="targetPoint" />
          </mxGeometry>
        </mxCell>
        <mxCell id="D2oOb19byxSWU7CXDX52-34" value="" style="endArrow=none;html=1;rounded=0;" edge="1" parent="1">
          <mxGeometry width="50" height="50" relative="1" as="geometry">
            <mxPoint x="-250" y="290" as="sourcePoint" />
            <mxPoint x="-150" y="290" as="targetPoint" />
          </mxGeometry>
        </mxCell>
        <mxCell id="D2oOb19byxSWU7CXDX52-64" value="" style="rounded=0;whiteSpace=wrap;html=1;" vertex="1" parent="1">
          <mxGeometry x="-528" y="75" width="178" height="40" as="geometry" />
        </mxCell>
        <mxCell id="D2oOb19byxSWU7CXDX52-65" value="" style="rounded=0;whiteSpace=wrap;html=1;" vertex="1" parent="1">
          <mxGeometry x="-526" y="73" width="178" height="40" as="geometry" />
        </mxCell>
        <mxCell id="D2oOb19byxSWU7CXDX52-66" value="" style="rounded=0;whiteSpace=wrap;html=1;" vertex="1" parent="1">
          <mxGeometry x="-524" y="71" width="178" height="40" as="geometry" />
        </mxCell>
        <mxCell id="D2oOb19byxSWU7CXDX52-67" value="" style="rounded=0;whiteSpace=wrap;html=1;" vertex="1" parent="1">
          <mxGeometry x="-522" y="69" width="178" height="40" as="geometry" />
        </mxCell>
        <mxCell id="D2oOb19byxSWU7CXDX52-68" value="X&lt;sub&gt;1&lt;span style=&quot;font-size: 12px;&quot;&gt;&amp;nbsp;&lt;/span&gt;&lt;/sub&gt;&lt;span style=&quot;font-size: 10px;&quot;&gt;&lt;sub&gt;(i to i-10)&lt;/sub&gt;&lt;/span&gt;" style="rounded=0;whiteSpace=wrap;html=1;strokeWidth=1;fillColor=#f5f5f5;fontColor=#333333;strokeColor=#666666;" vertex="1" parent="1">
          <mxGeometry x="-520" y="67" width="120" height="20" as="geometry" />
        </mxCell>
        <mxCell id="D2oOb19byxSWU7CXDX52-69" value="Y&lt;sub&gt;1&lt;span style=&quot;font-size: 12px;&quot;&gt;&amp;nbsp;&lt;/span&gt;&lt;/sub&gt;&lt;span style=&quot;font-size: 10px;&quot;&gt;&lt;sub&gt;(i to i+10)&lt;/sub&gt;&lt;/span&gt;" style="rounded=0;whiteSpace=wrap;html=1;strokeWidth=1;fillColor=#f5f5f5;fontColor=#333333;strokeColor=#666666;" vertex="1" parent="1">
          <mxGeometry x="-400" y="67" width="58" height="20" as="geometry" />
        </mxCell>
        <mxCell id="D2oOb19byxSWU7CXDX52-70" value="Close" style="rounded=0;whiteSpace=wrap;html=1;strokeWidth=1;fillColor=#dae8fc;strokeColor=#6c8ebf;" vertex="1" parent="1">
          <mxGeometry x="-400" y="87" width="58" height="20" as="geometry" />
        </mxCell>
        <mxCell id="D2oOb19byxSWU7CXDX52-71" value="" style="childLayout=tableLayout;recursiveResize=0;shadow=0;fillColor=#e1d5e7;fontSize=10;strokeWidth=1;strokeColor=#9673a6;" vertex="1" parent="1">
          <mxGeometry x="-460" y="87" width="60" height="20" as="geometry" />
        </mxCell>
        <mxCell id="D2oOb19byxSWU7CXDX52-72" style="shape=tableRow;horizontal=0;startSize=0;swimlaneHead=0;swimlaneBody=0;top=0;left=0;bottom=0;right=0;dropTarget=0;collapsible=0;recursiveResize=0;expand=0;fontStyle=0;fillColor=none;strokeColor=inherit;" vertex="1" parent="D2oOb19byxSWU7CXDX52-71">
          <mxGeometry width="60" height="20" as="geometry" />
        </mxCell>
        <mxCell id="D2oOb19byxSWU7CXDX52-73" value="F&lt;sub&gt;4&lt;/sub&gt;" style="connectable=0;recursiveResize=0;strokeColor=inherit;fillColor=none;align=center;whiteSpace=wrap;html=1;" vertex="1" parent="D2oOb19byxSWU7CXDX52-72">
          <mxGeometry width="20" height="20" as="geometry">
            <mxRectangle width="20" height="20" as="alternateBounds" />
          </mxGeometry>
        </mxCell>
        <mxCell id="D2oOb19byxSWU7CXDX52-74" value="..." style="connectable=0;recursiveResize=0;strokeColor=inherit;fillColor=none;align=center;whiteSpace=wrap;html=1;" vertex="1" parent="D2oOb19byxSWU7CXDX52-72">
          <mxGeometry x="20" width="20" height="20" as="geometry">
            <mxRectangle width="20" height="20" as="alternateBounds" />
          </mxGeometry>
        </mxCell>
        <mxCell id="D2oOb19byxSWU7CXDX52-75" value="F&lt;sub&gt;k&lt;/sub&gt;" style="connectable=0;recursiveResize=0;strokeColor=inherit;fillColor=none;align=center;whiteSpace=wrap;html=1;" vertex="1" parent="D2oOb19byxSWU7CXDX52-72">
          <mxGeometry x="40" width="20" height="20" as="geometry">
            <mxRectangle width="20" height="20" as="alternateBounds" />
          </mxGeometry>
        </mxCell>
        <mxCell id="D2oOb19byxSWU7CXDX52-76" value="" style="childLayout=tableLayout;recursiveResize=0;shadow=0;fillColor=#e1d5e7;fontSize=10;strokeWidth=1;strokeColor=#9673a6;" vertex="1" parent="1">
          <mxGeometry x="-520" y="87" width="60" height="20" as="geometry" />
        </mxCell>
        <mxCell id="D2oOb19byxSWU7CXDX52-77" style="shape=tableRow;horizontal=0;startSize=0;swimlaneHead=0;swimlaneBody=0;top=0;left=0;bottom=0;right=0;dropTarget=0;collapsible=0;recursiveResize=0;expand=0;fontStyle=0;fillColor=none;strokeColor=inherit;" vertex="1" parent="D2oOb19byxSWU7CXDX52-76">
          <mxGeometry width="60" height="20" as="geometry" />
        </mxCell>
        <mxCell id="D2oOb19byxSWU7CXDX52-78" value="&lt;span style=&quot;font-size: 10px;&quot;&gt;F&lt;sub&gt;1&lt;/sub&gt;&lt;/span&gt;" style="connectable=0;recursiveResize=0;strokeColor=inherit;fillColor=none;align=center;whiteSpace=wrap;html=1;" vertex="1" parent="D2oOb19byxSWU7CXDX52-77">
          <mxGeometry width="20" height="20" as="geometry">
            <mxRectangle width="20" height="20" as="alternateBounds" />
          </mxGeometry>
        </mxCell>
        <mxCell id="D2oOb19byxSWU7CXDX52-79" value="F&lt;sub&gt;2&lt;/sub&gt;" style="connectable=0;recursiveResize=0;strokeColor=inherit;fillColor=none;align=center;whiteSpace=wrap;html=1;" vertex="1" parent="D2oOb19byxSWU7CXDX52-77">
          <mxGeometry x="20" width="20" height="20" as="geometry">
            <mxRectangle width="20" height="20" as="alternateBounds" />
          </mxGeometry>
        </mxCell>
        <mxCell id="D2oOb19byxSWU7CXDX52-80" value="F&lt;sub&gt;3&lt;/sub&gt;" style="connectable=0;recursiveResize=0;strokeColor=inherit;fillColor=none;align=center;whiteSpace=wrap;html=1;" vertex="1" parent="D2oOb19byxSWU7CXDX52-77">
          <mxGeometry x="40" width="20" height="20" as="geometry">
            <mxRectangle width="20" height="20" as="alternateBounds" />
          </mxGeometry>
        </mxCell>
        <mxCell id="D2oOb19byxSWU7CXDX52-94" value="" style="rounded=0;whiteSpace=wrap;html=1;" vertex="1" parent="1">
          <mxGeometry x="-525" y="150" width="178" height="40" as="geometry" />
        </mxCell>
        <mxCell id="D2oOb19byxSWU7CXDX52-95" value="" style="rounded=0;whiteSpace=wrap;html=1;" vertex="1" parent="1">
          <mxGeometry x="-523" y="148" width="178" height="40" as="geometry" />
        </mxCell>
        <mxCell id="D2oOb19byxSWU7CXDX52-96" value="" style="rounded=0;whiteSpace=wrap;html=1;" vertex="1" parent="1">
          <mxGeometry x="-521" y="146" width="178" height="40" as="geometry" />
        </mxCell>
        <mxCell id="D2oOb19byxSWU7CXDX52-97" value="" style="rounded=0;whiteSpace=wrap;html=1;" vertex="1" parent="1">
          <mxGeometry x="-519" y="144" width="178" height="40" as="geometry" />
        </mxCell>
        <mxCell id="D2oOb19byxSWU7CXDX52-98" value="" style="childLayout=tableLayout;recursiveResize=0;shadow=0;fillColor=none;fontSize=10;strokeWidth=1;" vertex="1" parent="1">
          <mxGeometry x="-517" y="162" width="60" height="20" as="geometry" />
        </mxCell>
        <mxCell id="D2oOb19byxSWU7CXDX52-99" style="shape=tableRow;horizontal=0;startSize=0;swimlaneHead=0;swimlaneBody=0;top=0;left=0;bottom=0;right=0;dropTarget=0;collapsible=0;recursiveResize=0;expand=0;fontStyle=0;fillColor=#e1d5e7;strokeColor=#9673a6;" vertex="1" parent="D2oOb19byxSWU7CXDX52-98">
          <mxGeometry width="60" height="20" as="geometry" />
        </mxCell>
        <mxCell id="D2oOb19byxSWU7CXDX52-100" value="&lt;span style=&quot;font-size: 10px;&quot;&gt;F&lt;sub&gt;1&lt;/sub&gt;&lt;/span&gt;" style="connectable=0;recursiveResize=0;strokeColor=inherit;fillColor=none;align=center;whiteSpace=wrap;html=1;" vertex="1" parent="D2oOb19byxSWU7CXDX52-99">
          <mxGeometry width="20" height="20" as="geometry">
            <mxRectangle width="20" height="20" as="alternateBounds" />
          </mxGeometry>
        </mxCell>
        <mxCell id="D2oOb19byxSWU7CXDX52-101" value="F&lt;sub&gt;2&lt;/sub&gt;" style="connectable=0;recursiveResize=0;strokeColor=inherit;fillColor=none;align=center;whiteSpace=wrap;html=1;" vertex="1" parent="D2oOb19byxSWU7CXDX52-99">
          <mxGeometry x="20" width="20" height="20" as="geometry">
            <mxRectangle width="20" height="20" as="alternateBounds" />
          </mxGeometry>
        </mxCell>
        <mxCell id="D2oOb19byxSWU7CXDX52-102" value="F&lt;sub&gt;3&lt;/sub&gt;" style="connectable=0;recursiveResize=0;strokeColor=inherit;fillColor=none;align=center;whiteSpace=wrap;html=1;" vertex="1" parent="D2oOb19byxSWU7CXDX52-99">
          <mxGeometry x="40" width="20" height="20" as="geometry">
            <mxRectangle width="20" height="20" as="alternateBounds" />
          </mxGeometry>
        </mxCell>
        <mxCell id="D2oOb19byxSWU7CXDX52-103" value="" style="childLayout=tableLayout;recursiveResize=0;shadow=0;fillColor=#e1d5e7;fontSize=10;strokeWidth=1;strokeColor=#9673a6;" vertex="1" parent="1">
          <mxGeometry x="-457" y="162" width="60" height="20" as="geometry" />
        </mxCell>
        <mxCell id="D2oOb19byxSWU7CXDX52-104" style="shape=tableRow;horizontal=0;startSize=0;swimlaneHead=0;swimlaneBody=0;top=0;left=0;bottom=0;right=0;dropTarget=0;collapsible=0;recursiveResize=0;expand=0;fontStyle=0;fillColor=none;strokeColor=inherit;" vertex="1" parent="D2oOb19byxSWU7CXDX52-103">
          <mxGeometry width="60" height="20" as="geometry" />
        </mxCell>
        <mxCell id="D2oOb19byxSWU7CXDX52-105" value="F&lt;sub&gt;4&lt;/sub&gt;" style="connectable=0;recursiveResize=0;strokeColor=inherit;fillColor=none;align=center;whiteSpace=wrap;html=1;" vertex="1" parent="D2oOb19byxSWU7CXDX52-104">
          <mxGeometry width="20" height="20" as="geometry">
            <mxRectangle width="20" height="20" as="alternateBounds" />
          </mxGeometry>
        </mxCell>
        <mxCell id="D2oOb19byxSWU7CXDX52-106" value="..." style="connectable=0;recursiveResize=0;strokeColor=inherit;fillColor=none;align=center;whiteSpace=wrap;html=1;" vertex="1" parent="D2oOb19byxSWU7CXDX52-104">
          <mxGeometry x="20" width="20" height="20" as="geometry">
            <mxRectangle width="20" height="20" as="alternateBounds" />
          </mxGeometry>
        </mxCell>
        <mxCell id="D2oOb19byxSWU7CXDX52-107" value="F&lt;sub&gt;k&lt;/sub&gt;" style="connectable=0;recursiveResize=0;strokeColor=inherit;fillColor=none;align=center;whiteSpace=wrap;html=1;" vertex="1" parent="D2oOb19byxSWU7CXDX52-104">
          <mxGeometry x="40" width="20" height="20" as="geometry">
            <mxRectangle width="20" height="20" as="alternateBounds" />
          </mxGeometry>
        </mxCell>
        <mxCell id="D2oOb19byxSWU7CXDX52-108" value="X&lt;sub&gt;N&lt;/sub&gt;&lt;sub&gt;c&lt;/sub&gt;&lt;span style=&quot;vertical-align: sub; font-size: 12px;&quot;&gt;&amp;nbsp;&lt;/span&gt;&lt;span style=&quot;font-size: 10px;&quot;&gt;&lt;sub&gt;(i to i-10)&lt;/sub&gt;&lt;/span&gt;" style="rounded=0;whiteSpace=wrap;html=1;strokeWidth=1;fillColor=#f5f5f5;fontColor=#333333;strokeColor=#666666;" vertex="1" parent="1">
          <mxGeometry x="-517" y="142" width="120" height="20" as="geometry" />
        </mxCell>
        <mxCell id="D2oOb19byxSWU7CXDX52-109" value="Y&lt;sub&gt;N&lt;/sub&gt;&lt;sub&gt;c&lt;/sub&gt;&lt;span style=&quot;vertical-align: sub;&quot;&gt;&amp;nbsp;&lt;/span&gt;&lt;span style=&quot;font-size: 10px;&quot;&gt;&lt;sub&gt;(i to i+10)&lt;/sub&gt;&lt;/span&gt;" style="rounded=0;whiteSpace=wrap;html=1;strokeWidth=1;fillColor=#f5f5f5;fontColor=#333333;strokeColor=#666666;" vertex="1" parent="1">
          <mxGeometry x="-397" y="142" width="61" height="20" as="geometry" />
        </mxCell>
        <mxCell id="D2oOb19byxSWU7CXDX52-110" value="Close" style="rounded=0;whiteSpace=wrap;html=1;strokeWidth=1;fillColor=#dae8fc;strokeColor=#6c8ebf;" vertex="1" parent="1">
          <mxGeometry x="-397" y="162" width="61" height="20" as="geometry" />
        </mxCell>
        <mxCell id="D2oOb19byxSWU7CXDX52-111" value="" style="childLayout=tableLayout;recursiveResize=0;shadow=0;fillColor=none;fontSize=10;strokeWidth=1;" vertex="1" parent="1">
          <mxGeometry x="-845" y="-141" width="60" height="20" as="geometry" />
        </mxCell>
        <mxCell id="D2oOb19byxSWU7CXDX52-112" style="shape=tableRow;horizontal=0;startSize=0;swimlaneHead=0;swimlaneBody=0;top=0;left=0;bottom=0;right=0;dropTarget=0;collapsible=0;recursiveResize=0;expand=0;fontStyle=0;fillColor=none;strokeColor=inherit;" vertex="1" parent="D2oOb19byxSWU7CXDX52-111">
          <mxGeometry width="60" height="20" as="geometry" />
        </mxCell>
        <mxCell id="D2oOb19byxSWU7CXDX52-113" value="&lt;span style=&quot;font-size: 10px;&quot;&gt;F&lt;sub&gt;1&lt;/sub&gt;&lt;/span&gt;" style="connectable=0;recursiveResize=0;strokeColor=inherit;fillColor=none;align=center;whiteSpace=wrap;html=1;" vertex="1" parent="D2oOb19byxSWU7CXDX52-112">
          <mxGeometry width="20" height="20" as="geometry">
            <mxRectangle width="20" height="20" as="alternateBounds" />
          </mxGeometry>
        </mxCell>
        <mxCell id="D2oOb19byxSWU7CXDX52-114" value="F&lt;sub&gt;2&lt;/sub&gt;" style="connectable=0;recursiveResize=0;strokeColor=inherit;fillColor=none;align=center;whiteSpace=wrap;html=1;" vertex="1" parent="D2oOb19byxSWU7CXDX52-112">
          <mxGeometry x="20" width="20" height="20" as="geometry">
            <mxRectangle width="20" height="20" as="alternateBounds" />
          </mxGeometry>
        </mxCell>
        <mxCell id="D2oOb19byxSWU7CXDX52-115" value="F&lt;sub&gt;3&lt;/sub&gt;" style="connectable=0;recursiveResize=0;strokeColor=inherit;fillColor=none;align=center;whiteSpace=wrap;html=1;" vertex="1" parent="D2oOb19byxSWU7CXDX52-112">
          <mxGeometry x="40" width="20" height="20" as="geometry">
            <mxRectangle width="20" height="20" as="alternateBounds" />
          </mxGeometry>
        </mxCell>
        <mxCell id="D2oOb19byxSWU7CXDX52-116" value="" style="childLayout=tableLayout;recursiveResize=0;shadow=0;fillColor=none;fontSize=10;strokeWidth=1;" vertex="1" parent="1">
          <mxGeometry x="-785" y="-141" width="60" height="20" as="geometry" />
        </mxCell>
        <mxCell id="D2oOb19byxSWU7CXDX52-117" style="shape=tableRow;horizontal=0;startSize=0;swimlaneHead=0;swimlaneBody=0;top=0;left=0;bottom=0;right=0;dropTarget=0;collapsible=0;recursiveResize=0;expand=0;fontStyle=0;fillColor=none;strokeColor=inherit;" vertex="1" parent="D2oOb19byxSWU7CXDX52-116">
          <mxGeometry width="60" height="20" as="geometry" />
        </mxCell>
        <mxCell id="D2oOb19byxSWU7CXDX52-118" value="F&lt;sub&gt;4&lt;/sub&gt;" style="connectable=0;recursiveResize=0;strokeColor=inherit;fillColor=none;align=center;whiteSpace=wrap;html=1;" vertex="1" parent="D2oOb19byxSWU7CXDX52-117">
          <mxGeometry width="20" height="20" as="geometry">
            <mxRectangle width="20" height="20" as="alternateBounds" />
          </mxGeometry>
        </mxCell>
        <mxCell id="D2oOb19byxSWU7CXDX52-119" value="..." style="connectable=0;recursiveResize=0;strokeColor=inherit;fillColor=none;align=center;whiteSpace=wrap;html=1;" vertex="1" parent="D2oOb19byxSWU7CXDX52-117">
          <mxGeometry x="20" width="20" height="20" as="geometry">
            <mxRectangle width="20" height="20" as="alternateBounds" />
          </mxGeometry>
        </mxCell>
        <mxCell id="D2oOb19byxSWU7CXDX52-120" value="F&lt;sub&gt;k&lt;/sub&gt;" style="connectable=0;recursiveResize=0;strokeColor=inherit;fillColor=none;align=center;whiteSpace=wrap;html=1;" vertex="1" parent="D2oOb19byxSWU7CXDX52-117">
          <mxGeometry x="40" width="20" height="20" as="geometry">
            <mxRectangle width="20" height="20" as="alternateBounds" />
          </mxGeometry>
        </mxCell>
        <mxCell id="D2oOb19byxSWU7CXDX52-121" value="X&lt;sub&gt;t&lt;span style=&quot;font-size: 12px;&quot;&gt;&amp;nbsp;&lt;/span&gt;&lt;/sub&gt;&lt;span style=&quot;font-size: 10px;&quot;&gt;&lt;sub&gt;(i to i-10)&lt;/sub&gt;&lt;/span&gt;" style="rounded=0;whiteSpace=wrap;html=1;strokeWidth=1;" vertex="1" parent="1">
          <mxGeometry x="-845" y="-161" width="120" height="20" as="geometry" />
        </mxCell>
        <mxCell id="D2oOb19byxSWU7CXDX52-122" value="Y&lt;span style=&quot;font-size: 10px;&quot;&gt;&lt;sub&gt;t&lt;/sub&gt;&lt;/span&gt;&lt;span style=&quot;vertical-align: sub;&quot;&gt;&amp;nbsp;&lt;/span&gt;&lt;span style=&quot;font-size: 10px;&quot;&gt;&lt;sub&gt;(i to i+10)&lt;/sub&gt;&lt;/span&gt;" style="rounded=0;whiteSpace=wrap;html=1;strokeWidth=1;" vertex="1" parent="1">
          <mxGeometry x="-725" y="-161" width="59" height="20" as="geometry" />
        </mxCell>
        <mxCell id="D2oOb19byxSWU7CXDX52-123" value="Close" style="rounded=0;whiteSpace=wrap;html=1;strokeWidth=1;" vertex="1" parent="1">
          <mxGeometry x="-725" y="-141" width="59" height="20" as="geometry" />
        </mxCell>
        <mxCell id="D2oOb19byxSWU7CXDX52-124" value="" style="rounded=0;whiteSpace=wrap;html=1;" vertex="1" parent="1">
          <mxGeometry x="-295" y="158" width="178" height="40" as="geometry" />
        </mxCell>
        <mxCell id="D2oOb19byxSWU7CXDX52-125" value="" style="rounded=0;whiteSpace=wrap;html=1;" vertex="1" parent="1">
          <mxGeometry x="-293" y="156" width="178" height="40" as="geometry" />
        </mxCell>
        <mxCell id="D2oOb19byxSWU7CXDX52-126" value="" style="rounded=0;whiteSpace=wrap;html=1;" vertex="1" parent="1">
          <mxGeometry x="-291" y="154" width="178" height="40" as="geometry" />
        </mxCell>
        <mxCell id="D2oOb19byxSWU7CXDX52-127" value="" style="rounded=0;whiteSpace=wrap;html=1;" vertex="1" parent="1">
          <mxGeometry x="-289" y="152" width="178" height="40" as="geometry" />
        </mxCell>
        <mxCell id="D2oOb19byxSWU7CXDX52-128" value="" style="childLayout=tableLayout;recursiveResize=0;shadow=0;fontSize=10;strokeWidth=1;fillColor=#e1d5e7;strokeColor=#9673a6;" vertex="1" parent="1">
          <mxGeometry x="-287" y="170" width="60" height="20" as="geometry" />
        </mxCell>
        <mxCell id="D2oOb19byxSWU7CXDX52-129" style="shape=tableRow;horizontal=0;startSize=0;swimlaneHead=0;swimlaneBody=0;top=0;left=0;bottom=0;right=0;dropTarget=0;collapsible=0;recursiveResize=0;expand=0;fontStyle=0;fillColor=none;strokeColor=inherit;" vertex="1" parent="D2oOb19byxSWU7CXDX52-128">
          <mxGeometry width="60" height="20" as="geometry" />
        </mxCell>
        <mxCell id="D2oOb19byxSWU7CXDX52-130" value="&lt;span style=&quot;font-size: 10px;&quot;&gt;F&lt;sub&gt;1&lt;/sub&gt;&lt;/span&gt;" style="connectable=0;recursiveResize=0;strokeColor=inherit;fillColor=none;align=center;whiteSpace=wrap;html=1;" vertex="1" parent="D2oOb19byxSWU7CXDX52-129">
          <mxGeometry width="20" height="20" as="geometry">
            <mxRectangle width="20" height="20" as="alternateBounds" />
          </mxGeometry>
        </mxCell>
        <mxCell id="D2oOb19byxSWU7CXDX52-131" value="F&lt;sub&gt;2&lt;/sub&gt;" style="connectable=0;recursiveResize=0;strokeColor=inherit;fillColor=none;align=center;whiteSpace=wrap;html=1;" vertex="1" parent="D2oOb19byxSWU7CXDX52-129">
          <mxGeometry x="20" width="20" height="20" as="geometry">
            <mxRectangle width="20" height="20" as="alternateBounds" />
          </mxGeometry>
        </mxCell>
        <mxCell id="D2oOb19byxSWU7CXDX52-132" value="F&lt;sub&gt;3&lt;/sub&gt;" style="connectable=0;recursiveResize=0;strokeColor=inherit;fillColor=none;align=center;whiteSpace=wrap;html=1;" vertex="1" parent="D2oOb19byxSWU7CXDX52-129">
          <mxGeometry x="40" width="20" height="20" as="geometry">
            <mxRectangle width="20" height="20" as="alternateBounds" />
          </mxGeometry>
        </mxCell>
        <mxCell id="D2oOb19byxSWU7CXDX52-133" value="" style="childLayout=tableLayout;recursiveResize=0;shadow=0;fillColor=#e1d5e7;fontSize=10;strokeWidth=1;strokeColor=#9673a6;" vertex="1" parent="1">
          <mxGeometry x="-227" y="170" width="60" height="20" as="geometry" />
        </mxCell>
        <mxCell id="D2oOb19byxSWU7CXDX52-134" style="shape=tableRow;horizontal=0;startSize=0;swimlaneHead=0;swimlaneBody=0;top=0;left=0;bottom=0;right=0;dropTarget=0;collapsible=0;recursiveResize=0;expand=0;fontStyle=0;fillColor=none;strokeColor=inherit;" vertex="1" parent="D2oOb19byxSWU7CXDX52-133">
          <mxGeometry width="60" height="20" as="geometry" />
        </mxCell>
        <mxCell id="D2oOb19byxSWU7CXDX52-135" value="F&lt;sub&gt;4&lt;/sub&gt;" style="connectable=0;recursiveResize=0;strokeColor=inherit;fillColor=none;align=center;whiteSpace=wrap;html=1;" vertex="1" parent="D2oOb19byxSWU7CXDX52-134">
          <mxGeometry width="20" height="20" as="geometry">
            <mxRectangle width="20" height="20" as="alternateBounds" />
          </mxGeometry>
        </mxCell>
        <mxCell id="D2oOb19byxSWU7CXDX52-136" value="..." style="connectable=0;recursiveResize=0;strokeColor=inherit;fillColor=none;align=center;whiteSpace=wrap;html=1;" vertex="1" parent="D2oOb19byxSWU7CXDX52-134">
          <mxGeometry x="20" width="20" height="20" as="geometry">
            <mxRectangle width="20" height="20" as="alternateBounds" />
          </mxGeometry>
        </mxCell>
        <mxCell id="D2oOb19byxSWU7CXDX52-137" value="F&lt;sub&gt;k&lt;/sub&gt;" style="connectable=0;recursiveResize=0;strokeColor=inherit;fillColor=none;align=center;whiteSpace=wrap;html=1;" vertex="1" parent="D2oOb19byxSWU7CXDX52-134">
          <mxGeometry x="40" width="20" height="20" as="geometry">
            <mxRectangle width="20" height="20" as="alternateBounds" />
          </mxGeometry>
        </mxCell>
        <mxCell id="D2oOb19byxSWU7CXDX52-138" value="X&lt;sub&gt;t&lt;span style=&quot;font-size: 12px;&quot;&gt;&amp;nbsp;&lt;/span&gt;&lt;/sub&gt;&lt;span style=&quot;font-size: 10px;&quot;&gt;&lt;sub&gt;(i to i-10)&lt;/sub&gt;&lt;/span&gt;" style="rounded=0;whiteSpace=wrap;html=1;strokeWidth=1;fillColor=#f5f5f5;fontColor=#333333;strokeColor=#666666;" vertex="1" parent="1">
          <mxGeometry x="-287" y="150" width="120" height="20" as="geometry" />
        </mxCell>
        <mxCell id="D2oOb19byxSWU7CXDX52-139" value="Y&lt;span style=&quot;font-size: 10px;&quot;&gt;&lt;sub&gt;t&lt;/sub&gt;&lt;/span&gt;&lt;span style=&quot;vertical-align: sub;&quot;&gt;&amp;nbsp;&lt;/span&gt;&lt;span style=&quot;font-size: 10px;&quot;&gt;&lt;sub&gt;(i to i+10)&lt;/sub&gt;&lt;/span&gt;" style="rounded=0;whiteSpace=wrap;html=1;strokeWidth=1;fillColor=#f5f5f5;fontColor=#333333;strokeColor=#666666;" vertex="1" parent="1">
          <mxGeometry x="-167" y="150" width="59" height="20" as="geometry" />
        </mxCell>
        <mxCell id="D2oOb19byxSWU7CXDX52-140" value="Close" style="rounded=0;whiteSpace=wrap;html=1;strokeWidth=1;fillColor=#dae8fc;strokeColor=#6c8ebf;" vertex="1" parent="1">
          <mxGeometry x="-167" y="170" width="59" height="20" as="geometry" />
        </mxCell>
      </root>
    </mxGraphModel>
  </diagram>
</mxfile>
